<svg width="24" height="24" fill="none" xmlns="http://www.w3.org/2000/svg"><path d="M12 24c6.627 0 12-5.373 12-12S18.627 0 12 0 0 5.373 0 12s5.373 12 12 12z" fill="#DF0000"/><path fill-rule="evenodd" clip-rule="evenodd" d="M12 1.567C6.243 1.567 1.571 6.236 1.571 12c0 5.765 4.672 10.433 10.429 10.433 5.758 0 10.429-4.668 10.429-10.433 0-5.764-4.671-10.433-10.429-10.433zM0 12C0 5.375 5.37 0 12 0s12 5.375 12 12-5.37 12-12 12S0 18.625 0 12z" fill="#fff"/><path d="M8.043 15.36H6.738v-4.916a4.498 4.498 0 01-1.685.989v-1.184c.34-.112.71-.322 1.11-.632.399-.312.673-.676.821-1.09h1.059v6.834zM11.116 11.688c-.337-.142-.583-.337-.738-.585a1.558 1.558 0 01-.228-.822c0-.507.177-.927.53-1.258.356-.331.86-.497 1.513-.497.647 0 1.149.166 1.505.497.359.331.538.75.538 1.258 0 .316-.082.598-.246.845a1.563 1.563 0 01-.692.562c.378.152.664.373.86.664.197.29.296.627.296 1.007 0 .629-.2 1.14-.603 1.533-.4.393-.932.59-1.597.59-.62 0-1.135-.163-1.546-.488-.486-.384-.73-.91-.73-1.579 0-.368.092-.705.275-1.012.182-.31.47-.548.863-.715zm.27-1.314c0 .26.072.463.218.608.148.146.345.219.59.219.247 0 .445-.073.594-.219.148-.148.223-.352.223-.612 0-.245-.075-.44-.223-.585-.146-.15-.34-.223-.58-.223-.251 0-.451.074-.6.223-.148.148-.223.345-.223.59zm-.121 2.916c0 .359.091.639.274.84a.903.903 0 00.691.302c.27 0 .493-.096.669-.288.177-.195.265-.475.265-.84 0-.32-.09-.574-.27-.766a.887.887 0 00-.682-.293c-.319 0-.557.11-.715.33-.155.22-.232.458-.232.715zM17.064 14.38v-1.768H15.28v-1.221h1.783V9.622h1.188v1.769h1.788v1.221h-1.788v1.769h-1.188z" fill="#fff"/></svg>