<svg width="124" height="24" fill="none" xmlns="http://www.w3.org/2000/svg"><path fill-rule="evenodd" clip-rule="evenodd" d="M0 .196V24h21.77V.196H0z" fill="#8A0C6B"/><path fill-rule="evenodd" clip-rule="evenodd" d="M30.056.667c.195-.55.273-.667.39-.667.118 0 .157.078.391.627.274.667 2.932 7.765 3.987 10.353.625 1.53 1.095 1.804 1.485 1.922.228.071.465.11.704.118.117 0 .156 0 .156.117 0 .118-.156.118-.352.118-.273 0-1.524 0-2.696-.04-.313 0-.509 0-.509-.117a.106.106 0 01.118-.118c.117-.039.195-.196.117-.47l-1.602-4.235c-.04-.079-.079-.118-.157-.118h-3.674a.144.144 0 00-.156.157l-1.016 3.059c-.142.363-.221.747-.235 1.137 0 .353.352.51.665.51h.156c.117 0 .156.039.156.117 0 .079-.117.118-.273.118-.43 0-1.134-.04-1.33-.04-.195 0-1.133.04-1.914.04-.235 0-.313-.04-.313-.118 0-.078.078-.117.156-.117.17.005.341-.008.509-.04.781-.117 1.133-.745 1.446-1.607L30.055.667zm1.798 6.862c.078 0 .078-.039.078-.117L30.29 2.784c-.078-.274-.156-.274-.273 0l-1.485 4.628c-.04.078 0 .117.039.117h3.283zM41.234 12.196c.274.275.704.392 2.072.392.899 0 1.641 0 2.071-.51.23-.295.38-.647.43-1.02 0-.156.039-.235.156-.235.117 0 .117.079.117.275a9.48 9.48 0 01-.273 1.725c-.117.393-.156.471-1.094.471-1.251 0-2.111-.04-2.854-.04-.742 0-1.25-.038-1.758-.038h-.704c-.352 0-.703.039-.977.039-.196 0-.274-.04-.274-.118 0-.078.04-.117.157-.117a2.28 2.28 0 00.508-.079c.352-.078.43-.431.508-.941.078-.706.078-2.078.078-3.725v-3.02c0-2.667 0-3.177-.039-3.726-.04-.549-.156-.862-.743-.98a2.95 2.95 0 00-.586-.04c-.039-.038-.117-.078-.117-.117 0-.117.078-.157.273-.157.782 0 1.837.04 1.916.04.078 0 1.328-.04 1.837-.04.195 0 .273.04.273.157 0 .118-.078.118-.156.118a2.96 2.96 0 00-.547.039c-.509.078-.626.392-.665.98-.039.589-.039 1.02-.039 3.726v3.02s.117 3.607.43 3.921zM49.364 5.216c0-2.667 0-3.177-.04-3.726-.038-.549-.156-.863-.742-.98a2.95 2.95 0 00-.586-.04c-.079 0-.157-.039-.157-.117 0-.078.078-.157.274-.157.782 0 1.837.04 1.915.04.196 0 1.29-.04 2.306-.04 1.68 0 4.807-.157 6.879 1.96a6.126 6.126 0 011.642 4.354 7.021 7.021 0 01-1.837 4.823c-.743.785-2.267 1.961-5.199 1.961-.742 0-1.641-.04-2.384-.117a25.54 25.54 0 00-1.407-.118h-.703c-.352 0-.743.04-.978.04-.234 0-.273-.04-.273-.119 0-.078.039-.117.156-.117.172-.007.342-.033.508-.079.352-.078.43-.431.508-.94.079-.707.079-2.08.079-3.726l.039-2.902zm1.446 1.843c0 1.804 0 3.412.039 3.725 0 .432.039 1.098.195 1.294.235.314.9.706 2.893.706A5.689 5.689 0 0058 11.177c.9-.863 1.368-2.51 1.368-4.118a6.012 6.012 0 00-1.641-4.314C56.125 1.06 54.17.824 52.138.824a3.845 3.845 0 00-1.094.117c-.156.079-.195.157-.195.353v3.647l-.04 2.118zM64.841 1.49c-.039-.588-.156-.863-.742-.98a2.95 2.95 0 00-.587-.04c-.078 0-.156-.039-.156-.117 0-.078.078-.157.273-.157h1.251l.704.04h3.908c.25.001.499-.025.743-.08.078 0 .156-.078.234-.078.079 0 .079.079.079.157 0 .079-.079.314-.118.824 0 .157-.039.941-.078 1.137 0 .079-.039.196-.117.196-.078 0-.117-.078-.117-.235A1.35 1.35 0 0070 1.529c-.117-.274-.273-.47-1.211-.588-.274-.039-2.15-.039-2.345-.039-.079 0-.118.04-.118.157v4.745c0 .118 0 .157.118.157.234 0 2.345 0 2.736-.04.39-.039.664-.078.82-.235.157-.157.196-.235.274-.235.078 0 .078.04.078.157 0 .117-.078.392-.156.98-.04.353-.078.98-.078 1.098 0 .118 0 .314-.118.314-.117 0-.117-.078-.117-.157a1.433 1.433 0 00-.078-.549c-.078-.235-.235-.549-.9-.588-.468-.04-2.149-.079-2.461-.079a.105.105 0 00-.118.118v4.432c.04 1.176.313 1.411 1.994 1.411a4.714 4.714 0 001.641-.196c.43-.196.665-.549.782-1.255.039-.196.078-.274.156-.274s.117.157.117.274c0 .118-.156 1.294-.234 1.647-.117.432-.274.432-.938.432-1.29 0-2.228-.04-2.892-.04-.665 0-1.095-.039-1.33-.039h-.703c-.351 0-.742.04-.977.04-.234 0-.273-.04-.273-.118 0-.079.039-.118.156-.118.172-.007.342-.033.508-.078.352-.079.43-.432.508-.941.078-.706.078-2.079.078-3.726v-2.98s-.039-3.177-.078-3.726zM75.12 1.49c-.039-.588-.156-.863-.742-.98a2.949 2.949 0 00-.587-.04c-.078 0-.156-.039-.156-.117 0-.078.078-.157.274-.157.781 0 1.837.04 1.915.04.195 0 1.485-.04 2.032-.04 1.095 0 2.228.118 3.127.745a2.996 2.996 0 011.172 2.353c0 1.255-.547 2.55-2.071 3.96 1.407 1.805 2.58 3.334 3.557 4.393.938.98 1.641 1.177 2.071 1.255.22.028.442.04.664.04.079 0 .157.038.157.117 0 .078-.117.118-.43.118H84.89c-.977 0-1.368-.079-1.837-.314-.742-.392-1.329-1.255-2.306-2.51-.703-.941-1.524-2.078-1.876-2.549a.277.277 0 00-.234-.118l-2.11-.039c-.079 0-.118.04-.118.157v.431c0 1.647 0 3.02.078 3.726.04.51.156.863.665.941.258.042.52.068.781.078.118 0 .157.04.157.118 0 .079-.078.118-.274.118-.938 0-2.032-.04-2.11-.04 0 0-1.095.04-1.603.04-.195 0-.274-.04-.274-.118 0-.078.04-.118.157-.118.172-.007.342-.033.508-.078.352-.078.43-.431.508-.941.078-.706.078-2.079.078-3.726v-3.02s.078-3.176.04-3.725zm1.407 5.216a.216.216 0 00.117.196c.577.206 1.187.3 1.798.274a2.18 2.18 0 001.29-.313c.586-.432 1.055-1.334 1.055-2.628 0-2.157-1.133-3.45-2.97-3.45a3.62 3.62 0 00-1.133.117.216.216 0 00-.118.196l-.039 5.608z" fill="#fff"/><path fill-rule="evenodd" clip-rule="evenodd" d="M88.37 10.902c.04 1.412.195 1.843.664 2 .282.068.57.107.86.118.078 0 .157.039.157.117 0 .079-.118.118-.313.118-.977 0-1.642-.04-1.798-.04-.156 0-.86.04-1.641.04-.157 0-.274 0-.274-.118a.106.106 0 01.117-.117c.24.01.48-.03.704-.118.43-.118.508-.627.508-2.196V.863c0-.667.039-.863.195-.863s.43.392.586.549c.274.275 2.814 3.059 5.433 5.882 1.68 1.804 3.557 3.922 4.104 4.471l-.195-8.706c0-1.098-.157-1.49-.665-1.647a3.693 3.693 0 00-.82-.078c-.118 0-.118-.04-.118-.118 0-.078.117-.118.352-.118.782 0 1.602.04 1.798.04.195 0 .742-.04 1.446-.04.195 0 .313 0 .313.118s-.079.118-.196.118c-.144 0-.288.012-.43.039-.547.117-.625.51-.625 1.53l-.04 10.078c0 1.137-.038 1.215-.156 1.215-.117 0-.351-.196-1.25-1.098-.196-.157-2.658-2.706-4.456-4.666a279.547 279.547 0 01-4.455-4.942l.195 8.275zM103.886 1.49c-.039-.588-.156-.863-.742-.98a2.954 2.954 0 00-.587-.04c-.078 0-.156-.039-.156-.117 0-.078.078-.157.274-.157h1.25l.704.04h3.908c.25.001.499-.025.743-.08.078 0 .156-.078.234-.078.079 0 .079.079.079.157 0 .079-.079.314-.118.824 0 .157-.039.941-.078 1.137 0 .079-.039.196-.117.196-.078 0-.117-.078-.117-.235a1.354 1.354 0 00-.118-.628c-.117-.274-.273-.47-1.211-.588-.274-.039-2.15-.039-2.345-.039-.078 0-.117.04-.117.157v4.745c0 .118 0 .157.117.157.234 0 2.345 0 2.736-.04.391-.039.664-.078.82-.235.157-.157.196-.235.274-.235.078 0 .078.04.078.157 0 .117-.078.392-.156.98a17.7 17.7 0 00-.078 1.098c0 .118 0 .314-.118.314-.117 0-.117-.078-.117-.157a1.423 1.423 0 00-.078-.549c-.078-.235-.234-.549-.899-.588-.469-.04-2.15-.079-2.462-.079a.105.105 0 00-.117.118v4.432c.039 1.176.312 1.411 1.993 1.411a4.711 4.711 0 001.641-.196c.43-.196.665-.549.782-1.255.039-.196.078-.274.156-.274.079 0 .118.157.118.274 0 .118-.157 1.294-.235 1.647-.117.432-.273.432-.938.432-1.29 0-2.228-.04-2.892-.04-.665 0-1.094-.039-1.329-.039h-.703c-.352 0-.743.04-.978.04-.234 0-.273-.04-.273-.118 0-.079.039-.118.156-.118.172-.007.342-.033.508-.078.352-.079.43-.432.508-.941.079-.706.079-2.079.079-3.726v-2.98s-.04-3.177-.079-3.726zM116.354 8.784a3.539 3.539 0 00-.39-1.804c-.118-.274-2.424-4.039-3.01-4.94a4.619 4.619 0 00-1.172-1.256 1.954 1.954 0 00-.743-.274c-.078 0-.156-.04-.156-.118 0-.078.078-.117.234-.117.313 0 1.603.039 1.681.039.078 0 .781-.04 1.446-.04.195 0 .234.04.234.118 0 .079-.117.079-.273.157-.157.078-.235.157-.235.314.013.24.094.471.235.666.273.51 2.853 4.942 3.166 5.412.312-.706 2.501-4.47 2.853-5.059.176-.253.271-.554.273-.862 0-.236-.078-.432-.273-.471-.196-.04-.274-.078-.274-.157 0-.078.117-.117.274-.117.43 0 .977.039 1.133.039.157 0 1.329-.04 1.642-.04.117 0 .234.04.234.118 0 .079-.078.157-.234.157a1.74 1.74 0 00-.782.235 3.044 3.044 0 00-.899.863 61.096 61.096 0 00-3.283 5.451 3.9 3.9 0 00-.274 1.726v1.49c0 .274 0 .98.04 1.725.039.51.195.863.703.941.259.042.52.068.782.079.117 0 .156.04.156.118 0 .078-.078.117-.274.117-.938 0-2.032-.04-2.11-.04-.078 0-1.173.04-1.681.04-.195 0-.273-.04-.273-.117 0-.079.039-.118.156-.118a2.28 2.28 0 00.508-.079c.352-.078.508-.431.547-.94.039-.707.039-1.452.039-1.726v-1.53zM27.906 22.588c0-.431-.039-.47-.234-.549h-.157c-.039 0-.039 0-.039-.039 0-.04.04-.04.079-.04h1.094c.039 0 .078 0 .078.04a.04.04 0 01-.04.04h-.116c-.157.038-.196.117-.196.274v1.137c0 .235 0 .235-.078.274a2.752 2.752 0 01-1.094.236 2.433 2.433 0 01-1.68-.55 2.015 2.015 0 01-.626-1.45 1.896 1.896 0 01.86-1.686c.42-.226.892-.334 1.367-.314.313 0 .704.078.782.078.14.034.286.048.43.04.03.004.057.017.078.039-.027.247-.04.496-.039.745 0 .078 0 .117-.039.117s-.039-.039-.039-.078a.747.747 0 00-.117-.353c-.117-.196-.547-.431-1.212-.431a1.638 1.638 0 00-1.094.353c-.358.33-.546.807-.508 1.294a1.91 1.91 0 00.547 1.412c.35.357.83.555 1.329.549.202.006.402-.034.586-.118a.18.18 0 00.117-.196v-.824h-.039zM30.486 20.157c.078-.157.078-.196.117-.196.04 0 .04.039.117.196.079.157.9 2.314 1.212 3.098.195.47.352.549.43.588a.425.425 0 00.195.04c.04 0 .04 0 .04.039s-.04.039-.118.039h-.82c-.079 0-.157 0-.157-.04 0-.039 0-.039.04-.039.038 0 .077-.039.038-.157l-.469-1.254a.04.04 0 00-.039-.04h-1.094c-.04 0-.04 0-.04.04l-.312.902a1.15 1.15 0 00-.078.352c0 .118.117.157.195.157h.04c.038 0 .038 0 .038.04 0 .039-.039.039-.078.039h-.977c-.078 0-.078 0-.078-.04a.04.04 0 01.04-.039h.155c.235-.039.352-.235.43-.47l1.173-3.255zm.547 2.04l-.469-1.413c-.039-.078-.039-.078-.078 0l-.47 1.373v.04h1.017zM37.17 23.255c.038.196.038.47.273.549.115.029.233.042.352.04.039 0 .039 0 .039.038 0 .04-.04.04-.118.04a6.917 6.917 0 01-.86-.04.226.226 0 01-.156-.039c0-.04 0-.04.04-.04.038 0 .038-.078.038-.195l-.234-2.667-1.25 2.667c-.118.235-.118.274-.157.274-.04 0-.078-.039-.157-.235-.078-.196-.586-1.137-.586-1.176 0-.04-.625-1.334-.664-1.451h-.117l-.196 2.392v.274c0 .079.04.157.117.157a.425.425 0 00.196.04c.039 0 .039 0 .039.039s-.04.039-.078.039h-.9c-.038 0-.077 0-.077-.04l.039-.039h.156c.156-.039.196-.235.196-.431l.351-3.373a.138.138 0 01.04-.078l.078.078 1.563 3.255 1.524-3.255c.04-.039.04-.078.078-.078.04 0 .04.04.079.157l.351 3.098zM38.615 21.49v-1.098c0-.157-.039-.274-.234-.274h-.156c-.04 0-.04 0-.04-.04 0-.039.04-.039.079-.039h1.133c.86 0 1.016.51 1.016.784a1.37 1.37 0 01-.469.942c.511.122.879.571.9 1.098 0 .549-.43 1.137-1.33 1.137h-1.172c-.04 0-.078 0-.078-.04a.04.04 0 01.039-.038.233.233 0 00.156-.04c.117-.039.117-.117.156-.274.038-.378.052-.758.04-1.137v-.98h-.04zm.43.118c0 .039 0 .039.04.039.102.024.207.037.312.04.274 0 .352 0 .47-.118a.747.747 0 00.195-.51c0-.432-.196-.902-.704-.902a.582.582 0 00-.234.039.137.137 0 00-.079.04v1.372zm0 .549v1.098c0 .235 0 .314.157.392.148.061.309.088.469.079a.706.706 0 00.742-.746 1.237 1.237 0 00-.508-1.02 1.17 1.17 0 00-.43-.156h-.39c-.04 0-.04 0-.04.04v.313zM42.368 22.431c0 .745.039 1.098.117 1.177.078.078.234.117.625.117.274 0 .508 0 .626-.156a.448.448 0 00.117-.314c0-.04 0-.079.039-.079s.039.04.039.079a4.12 4.12 0 01-.078.51c-.04.117-.04.157-.313.157h-1.837c-.039 0-.078 0-.078-.04a.04.04 0 01.04-.039.233.233 0 00.155-.04c.118-.038.118-.117.157-.274.038-.377.05-.757.039-1.137v-2c0-.157-.04-.274-.235-.274h-.156c-.04 0-.04 0-.04-.04 0-.039.04-.039.08-.039h1.133c.039 0 .078 0 .078.04a.04.04 0 01-.04.039h-.156c-.156.039-.195.117-.195.274v2.04h-.117zM45.299 22.431c-.012.38 0 .76.039 1.138 0 .157.039.274.195.274.078 0 .196.04.235.04.039 0 .039 0 .039.039s-.04.039-.078.039h-1.134c-.039 0-.078 0-.078-.04a.04.04 0 01.04-.039.233.233 0 00.155-.039c.118-.04.118-.117.157-.274.038-.378.051-.758.039-1.138v-2c0-.157-.078-.274-.156-.274-.079 0-.118-.04-.157-.04-.039 0-.039 0-.039-.039s.04-.039.078-.039h1.017c.039 0 .078 0 .078.04a.04.04 0 01-.04.039h-.117c-.156.039-.195.117-.195.274v2.04h-.078zM47.136 23.216c0 .431.078.549.195.588a.66.66 0 00.274.04c.039 0 .039 0 .039.038 0 .04-.04.04-.078.04H46.51c-.038 0-.078 0-.078-.04 0-.039 0-.039.04-.039a.424.424 0 00.195-.04c.117-.038.156-.195.156-.666v-2.94c0-.197 0-.275.04-.275.038 0 .117.117.195.156.078.04.86.902 1.641 1.765.508.55 1.056 1.177 1.251 1.334l-.04-2.628c0-.353-.038-.431-.194-.47a.582.582 0 00-.235-.04c-.04 0-.04 0-.04-.039 0-.04.04-.04.118-.04h.977c.04 0 .078 0 .078.04a.04.04 0 01-.039.04h-.117c-.156.038-.195.156-.195.47v3.02c0 .352 0 .352-.04.352-.038 0-.117-.039-.39-.313-.04-.04-.782-.824-1.33-1.412a41.568 41.568 0 01-1.328-1.49l-.04 2.549zM54.093 22.588c0-.431-.04-.47-.235-.549h-.156c-.04 0-.04 0-.04-.039 0-.04.04-.04.079-.04h1.094c.04 0 .078 0 .078.04a.04.04 0 01-.039.04h-.117c-.156.038-.195.117-.195.274v1.137c0 .235 0 .235-.078.274a2.752 2.752 0 01-1.095.236 2.433 2.433 0 01-1.68-.55 2.015 2.015 0 01-.626-1.45 1.896 1.896 0 01.86-1.686c.42-.226.892-.334 1.368-.314.313 0 .704.078.782.078.14.034.285.048.43.04.03.004.057.017.078.039-.027.247-.04.496-.04.745 0 .078 0 .117-.038.117-.04 0-.04-.039-.04-.078a.747.747 0 00-.117-.353c-.117-.196-.547-.431-1.211-.431a1.638 1.638 0 00-1.095.353c-.358.33-.545.807-.508 1.294a1.91 1.91 0 00.547 1.412c.35.357.83.555 1.33.549.201.006.402-.034.586-.118a.18.18 0 00.117-.196v-.824h-.04zM57.454 23.412a1.91 1.91 0 01-.625-1.53 2.043 2.043 0 01.586-1.411 2.067 2.067 0 011.563-.55c.25-.01.5.016.743.079.167.042.337.069.508.078.03.005.057.018.078.04 0 .093-.014.185-.039.274v.55c0 .078 0 .117-.039.117s-.039-.04-.039-.118a.585.585 0 00-.234-.51 1.735 1.735 0 00-1.017-.313c-.43-.052-.86.092-1.172.392-.347.352-.519.84-.47 1.333-.009.495.18.974.526 1.328.345.354.818.553 1.312.555.325.049.656-.052.899-.275.09-.131.156-.277.195-.431a.138.138 0 01.04-.079c.038 0 .038.04.038.079s-.078.47-.117.666c-.04.079-.039.118-.117.157a3.041 3.041 0 01-.938.118 2.294 2.294 0 01-1.68-.55zM62.848 19.922c1.172 0 2.032.745 2.032 1.921a2.047 2.047 0 01-.568 1.492c-.383.4-.912.625-1.464.626a1.928 1.928 0 01-1.444-.58 1.941 1.941 0 01-.55-1.46 1.965 1.965 0 01.572-1.426c.377-.377.89-.584 1.422-.573zm.117 3.843c.47 0 1.407-.275 1.407-1.765 0-1.255-.742-1.882-1.563-1.882s-1.485.549-1.485 1.686c0 1.216.703 1.96 1.641 1.96zM65.975 23.216c0 .431.078.549.195.588a.66.66 0 00.273.04c.04 0 .04 0 .04.038 0 .04-.04.04-.079.04H65.35c-.039 0-.078 0-.078-.04 0-.039 0-.039.04-.039a.423.423 0 00.194-.04c.118-.038.157-.195.157-.666v-2.94c0-.197 0-.275.039-.275s.117.117.195.156c.079.04.86.902 1.642 1.765.508.55 1.055 1.177 1.25 1.334l-.038-2.628c0-.353-.04-.431-.196-.47a.582.582 0 00-.234-.04c-.04 0-.04 0-.04-.039 0-.04.04-.04.118-.04h.977c.039 0 .078 0 .078.04a.04.04 0 01-.04.04h-.116c-.157.038-.196.156-.196.47v3.02c0 .352 0 .352-.039.352s-.117-.039-.39-.313c-.04-.04-.782-.824-1.33-1.412a41.497 41.497 0 01-1.328-1.49l-.04 2.549zM71.68 22.431c-.011.38.002.76.04 1.138 0 .157.039.274.195.274.078 0 .196.04.235.04.039 0 .039 0 .039.039s-.04.039-.078.039h-1.134c-.039 0-.078 0-.078-.04a.04.04 0 01.04-.039.234.234 0 00.155-.039c.118-.04.118-.117.157-.274.038-.378.05-.758.039-1.138v-2.196h-.743c-.312 0-.43.04-.508.157-.078.118-.078.118-.078.157a.04.04 0 11-.078 0c0-.04.117-.51.117-.549a.137.137 0 01.04-.078c.038 0 .077.039.234.078.156.04.351.04.39.04h1.916a.865.865 0 00.351-.04c.079 0 .118-.04.157-.04.039 0 .039.04.039.08v.548c0 .04 0 .079-.04.079-.038 0-.038 0-.038-.079v-.039c0-.157-.157-.274-.626-.274h-.664v2.156h-.078zM73.987 21.49v-1.098c0-.157-.04-.274-.235-.274h-.156c-.04 0-.04 0-.04-.04 0-.039.04-.039.08-.039h1.172a1.6 1.6 0 01.938.235c.216.171.345.43.351.706-.02.467-.25.9-.625 1.177.43.549.782.98 1.055 1.333.159.19.381.316.626.353h.195c.04 0 .04 0 .04.04 0 .039-.04.039-.118.039h-.352a1.614 1.614 0 01-.547-.079c-.234-.117-.39-.353-.704-.745a8.32 8.32 0 01-.547-.745c-.039-.04-.039-.04-.078-.04h-.625c-.04 0-.04 0-.04.04v.118c-.011.38.002.76.04 1.137 0 .157.039.274.195.274.078 0 .196.04.235.04.039 0 .039 0 .039.039s-.04.039-.078.039h-1.095c-.039 0-.078 0-.078-.04 0-.02.017-.038.04-.038a.234.234 0 00.156-.04c.117-.039.117-.117.156-.274a8.62 8.62 0 00.039-1.137v-.98h-.04zm.43.47c0 .04 0 .04.039.08.176.057.361.083.547.078a.701.701 0 00.39-.079.872.872 0 00.314-.784.904.904 0 00-.9-1.02.865.865 0 00-.351.04c-.04 0-.04.039-.04.078v1.608zM79.263 19.922c1.173 0 2.032.745 2.032 1.921a2.047 2.047 0 01-.568 1.492 2.016 2.016 0 01-3.477-1.394c0-1.115.901-2.02 2.013-2.02zm.078 3.843c.47 0 1.407-.275 1.407-1.765 0-1.255-.742-1.882-1.563-1.882-.82 0-1.485.549-1.485 1.686 0 1.216.742 1.96 1.641 1.96zM82.663 22.431c0 .745.04 1.098.118 1.177.078.078.234.117.625.117.274 0 .508 0 .625-.156a.448.448 0 00.118-.314c0-.04 0-.079.039-.079s.039.04.039.079a4.12 4.12 0 01-.078.51c-.04.117-.04.157-.313.157H82c-.039 0-.078 0-.078-.04a.04.04 0 01.039-.039.233.233 0 00.156-.04c.118-.038.118-.117.157-.274.038-.377.05-.757.039-1.137v-2c0-.157-.04-.274-.235-.274h-.156c-.04 0-.04 0-.04-.04 0-.039.04-.039.079-.039h1.134c.038 0 .078 0 .078.04a.04.04 0 01-.04.039h-.156c-.156.039-.195.117-.195.274v2.04h-.118zM86.728 23.412a1.91 1.91 0 01-.625-1.53 2.043 2.043 0 01.586-1.411 2.067 2.067 0 011.564-.55c.25-.01.5.016.742.079.167.042.337.069.508.078.03.005.057.018.079.04-.001.093-.014.185-.04.274v.55c0 .078 0 .117-.039.117s-.039-.04-.039-.118a.585.585 0 00-.234-.51 1.735 1.735 0 00-1.017-.313c-.43-.052-.86.092-1.172.392-.347.352-.519.84-.469 1.333-.01.495.18.974.525 1.328.346.354.818.553 1.312.555.325.049.656-.052.899-.275.09-.131.156-.277.195-.431a.137.137 0 01.04-.079c.038 0 .038.04.038.079s-.078.47-.117.666c-.039.079-.039.118-.117.157a3.042 3.042 0 01-.938.118c-.782 0-1.29-.157-1.68-.55zM92.122 19.922c1.172 0 2.032.745 2.032 1.921a2.048 2.048 0 01-.568 1.492 2.016 2.016 0 01-3.477-1.394c0-1.115.901-2.02 2.013-2.02zm.078 3.843c.47 0 1.407-.275 1.407-1.765 0-1.255-.742-1.882-1.563-1.882s-1.485.549-1.485 1.686c0 1.216.742 1.96 1.641 1.96zM99.04 23.255c.039.196.039.47.273.549.115.029.234.042.352.04.04 0 .04 0 .04.038 0 .04-.04.04-.118.04a6.918 6.918 0 01-.86-.04.226.226 0 01-.156-.039c0-.04 0-.04.039-.04s.039-.078.039-.195l-.234-2.667-1.251 2.667c-.118.235-.118.274-.157.274-.039 0-.078-.039-.156-.235-.078-.196-.586-1.137-.586-1.176 0-.04-.626-1.334-.665-1.451h-.039l-.195 2.392v.274c0 .079.039.157.117.157a.425.425 0 00.195.04c.04 0 .04 0 .04.039s-.04.039-.079.039h-.898c-.04 0-.079 0-.079-.04l.04-.039h.156c.156-.039.195-.235.195-.431l.352-3.373a.137.137 0 01.039-.078c.04 0 .04.04.078.078l1.564 3.255 1.524-3.255c.039-.039.039-.078.078-.078.04 0 .04.04.078.157l.274 3.098zM104.316 23.255c.04.196.04.47.274.549.115.029.233.042.352.04.039 0 .039 0 .039.038 0 .04-.039.04-.117.04a6.907 6.907 0 01-.86-.04.229.229 0 01-.157-.039c0-.04 0-.04.039-.04.04 0 .04-.078.04-.195l-.235-2.667-1.251 2.667c-.117.235-.117.274-.156.274-.039 0-.078-.039-.156-.235-.078-.196-.587-1.137-.587-1.176 0-.04-.625-1.334-.664-1.451h-.039l-.196 2.392v.274c0 .079.04.157.118.157a.424.424 0 00.195.04c.039 0 .039 0 .039.039s-.039.039-.078.039h-.899c-.039 0-.078 0-.078-.04l.039-.039h.156c.157-.039.196-.235.196-.431l.352-3.373a.132.132 0 01.039-.078c.039 0 .039.04.078.078l1.563 3.255 1.524-3.255c.04-.039.04-.078.079-.078s.039.04.078.157l.273 3.098zM106.153 22.431c-.012.38.001.76.039 1.138 0 .157.039.274.196.274.078 0 .195.04.234.04.039 0 .039 0 .039.039s-.039.039-.078.039h-1.133c-.039 0-.078 0-.078-.04 0-.021.017-.039.039-.039a.233.233 0 00.156-.039c.117-.04.117-.117.156-.274.038-.378.051-.758.039-1.138v-2c0-.157-.078-.274-.156-.274s-.117-.04-.156-.04c-.039 0-.039 0-.039-.039s.039-.039.078-.039h1.016c.039 0 .078 0 .078.04a.04.04 0 01-.011.027.042.042 0 01-.028.012h-.117c-.156.039-.196.117-.196.274v2.04h-.078zM107.521 23.843c-.078-.04-.078-.04-.078-.196 0-.274.039-.47.039-.549 0-.078 0-.078.039-.078s.039 0 .039.039v.196a.782.782 0 001.486-.157c0-.353-.157-.549-.587-.941l-.234-.196c-.4-.24-.651-.67-.665-1.137a.961.961 0 011.056-.942c.195 0 .351.04.469.04a.424.424 0 00.195.039c.039 0 .039 0 .039.039a3.878 3.878 0 00-.039.549c0 .078 0 .118-.039.118s-.039-.04-.039-.079a.731.731 0 00-.078-.274.672.672 0 00-.626-.275.586.586 0 00-.625.588c0 .275.117.471.625.863l.157.118c.625.47.742.784.742 1.215a1.127 1.127 0 01-.43.863 1.404 1.404 0 01-.781.236c-.224.05-.458.022-.665-.079zM110.296 23.843c-.078-.04-.078-.04-.078-.196 0-.274.039-.47.039-.549 0-.078 0-.078.039-.078s.039 0 .039.039v.196a.782.782 0 001.485-.157c0-.353-.156-.549-.586-.941L111 21.96a1.373 1.373 0 01-.665-1.137.961.961 0 011.056-.942c.195 0 .351.04.469.04a.424.424 0 00.195.039c.039 0 .039 0 .039.039-.027.182-.04.365-.039.549 0 .078 0 .118-.039.118s-.039-.04-.039-.079a.731.731 0 00-.078-.274.673.673 0 00-.626-.275.586.586 0 00-.625.588c0 .275.117.471.625.863l.157.118c.625.47.742.784.742 1.215a1.127 1.127 0 01-.43.863 1.404 1.404 0 01-.781.236c-.224.05-.459.022-.665-.079zM113.853 22.431c-.012.38.001.76.039 1.138 0 .157.039.274.195.274.079 0 .196.04.235.04.039 0 .039 0 .039.039s-.039.039-.078.039h-1.134c-.039 0-.078 0-.078-.04a.04.04 0 01.039-.039.236.236 0 00.157-.039c.117-.04.117-.117.156-.274.038-.378.051-.758.039-1.138v-2c0-.157-.078-.274-.156-.274s-.117-.04-.157-.04c-.039 0-.039 0-.039-.039s.039-.039.079-.039h1.016c.039 0 .078 0 .078.04 0 .01-.004.02-.012.027a.037.037 0 01-.027.012h-.117c-.157.039-.196.117-.196.274v2.04h-.078zM116.862 19.922c1.173 0 2.033.745 2.033 1.921a2.049 2.049 0 01-.568 1.492 2.016 2.016 0 01-3.477-1.394c0-1.115.901-2.02 2.012-2.02zm.079 3.843c.469 0 1.407-.275 1.407-1.765 0-1.255-.743-1.882-1.564-1.882-.82 0-1.485.549-1.485 1.686 0 1.216.743 1.96 1.642 1.96zM119.95 23.216c0 .431.078.549.196.588.087.032.18.046.273.04.039 0 .039 0 .039.038 0 .04-.039.04-.078.04h-1.055c-.039 0-.078 0-.078-.04 0-.039 0-.039.039-.039a.422.422 0 00.195-.04c.117-.038.156-.195.156-.666v-2.94c0-.197 0-.275.04-.275.039 0 .117.117.195.156.078.04.86.902 1.641 1.765.509.55 1.056 1.177 1.251 1.334l-.039-2.628c0-.353-.039-.431-.195-.47a.585.585 0 00-.235-.04c-.039 0-.039 0-.039-.039 0-.04.039-.04.117-.04h.977c.04 0 .079 0 .079.04a.04.04 0 01-.039.04h-.118c-.156.038-.195.156-.195.47v3.02c0 .352 0 .352-.039.352s-.117-.039-.391-.313c-.039-.04-.782-.824-1.329-1.412a42.463 42.463 0 01-1.329-1.49l-.039 2.549z" fill="#fff"/><path d="M21.575 16.863H123.35" stroke="#8A0C6B" stroke-width=".88"/><path fill-rule="evenodd" clip-rule="evenodd" d="M13.406 4.47c-.117.197.352.471.469.314.117-.157-.352-.51-.47-.313zm-.743-.51c-.117.197.352.471.47.314.117-.156-.352-.51-.47-.313zm-1.68.981c.04.185.12.36.234.51a.93.93 0 00.43.235s-.43.04-.586-.117c-.156-.157-.078-.628-.078-.628zm-.118.51c.059.183.167.346.313.47.144.084.304.138.47.157a1.071 1.071 0 01-.626 0c-.196-.156-.157-.627-.157-.627zm1.056-2c-.117.196.352.47.469.314.117-.157-.352-.47-.47-.314zm2.58.745c0 .118-.235.235-.235.235l-.156-.039c.022-.09.035-.182.039-.274a.785.785 0 00-.079-.236s.47.118.43.314zm-2.385-1.412c-.156.04 0 .392 0 .392l.626-.039-.313-.157a.235.235 0 00-.313-.196zm-.508 1.647a.196.196 0 11.195.196.183.183 0 01-.195-.196zm-.782 1.53c.103.166.236.313.391.431.165.052.336.078.508.079 0 0-.39.196-.625.078-.235-.118-.274-.588-.274-.588zM4.338 4.824l.313.039a.842.842 0 01.04-.236c.033-.093.072-.185.116-.274l-.078-.118s-.234 0-.312.079c-.157.157-.079.51-.079.51zm.548.196c.128.043.247.109.351.196.089.096.167.201.235.313 0 0 .117-.392-.04-.549-.156-.156-.546.04-.546.04zM4.768 4s.274.078.352.235c.078.157 0 .392 0 .392.219-.003.434.051.625.157.274.236.196.863.196.863.085-.085.163-.177.234-.274.078-.118.196-.353.196-.353.036.054.075.107.117.156.078.275.469.157.469.157s-.195-.157-.274-.235c-.195-.196-.156-.431-.39-.549-.235-.118-.43.157-.626 0-.195-.157-.195-.588-.195-.588a.48.48 0 00-.196-.079A1.045 1.045 0 004.768 4zm.508-1.216a1.7 1.7 0 00-.508.353l1.134-.353c0 .04-.391-.039-.626 0zm-1.368-.862c.103.143.183.302.235.47.015.145.002.292-.04.432.125-.125.255-.243.392-.353.071-.062.15-.115.234-.157h-.156c-.078 0-.196.117-.196.117a.609.609 0 00-.117-.235.833.833 0 00-.352-.274zM1.602 4.667c.09.022.182.035.274.039a.854.854 0 00.352-.118c-.148.147-.267.32-.352.51a1.4 1.4 0 000 .588c.156-.344.399-.64.704-.862.137-.058.282-.097.43-.118l-.196-.196c.25.02.498.06.743.117l.508.197a.901.901 0 010-.471.81.81 0 01.312-.275c0-.131.014-.263.04-.392.117-.235.664-.274.664-.274a.908.908 0 00-.43-.079.48.48 0 00-.195.079c0-.177.04-.351.117-.51a.81.81 0 01.313-.275.834.834 0 00-.235.04c-.664.157-.234.745-.586 1.058l-.235.236-.117.235c-.313.392-.86-.157-1.29.079-.156.078-.195.156-.352.235-.156.078-.469.157-.469.157zm8.013 1.49a1.357 1.357 0 00-.04-.47c-.297.063-.607.05-.898-.04a.783.783 0 01-.47-.47 1.07 1.07 0 010-.353 4.636 4.636 0 00-.195-.706l.078-.196.196.039c.201-.003.401.037.586.117.313.157.508.785.508.785s-.078-.392.078-.51a.39.39 0 01.235-.079l-.04-.313.118-.157c.216.065.44.104.664.118a2.13 2.13 0 00.47-.079v-.196a.79.79 0 01.039-.196l.39-.118a1.177 1.177 0 01-.117-.392c0-.47.47-.706.9-.784.546-.118 1.328.667 1.328.667l.117-.353h.743l.195.666-.351.236s1.641.549 1.328 1.411a.99.99 0 01-.82.589.78.78 0 01-.274-.079 2.721 2.721 0 01-.39.824 1.951 1.951 0 01-.274.196c.083.31.07.639-.04.94 0 .197-.39.432-.39.432-.045.177-.11.349-.196.51-.23.554-.736.942-1.329 1.02-.244.419-.391.888-.43 1.372.079 1.334.47 2.157 1.173 3.451.547 1.059 1.368 1.883 2.267 2.04.703.156 1.759-.236 1.798-.628.039-.863-.977-.863-1.446-.274l-.196.196-.195-.04a3.094 3.094 0 01-.274-.823c0-.196.04-.275.04-.47 0-.197-.157-.314-.118-.51.078-.275.625-.353.625-.353a3.033 3.033 0 01-1.328-.628 4.072 4.072 0 01-.47-.823h-.117c-.351-.04-.273-.55-.195-.903.081-.18.202-.34.352-.47l.078.196.742.588.977.588.9.432-.587-.98s-.86-1.53-.703-2.55c.312-1.882 2.345-1.254 2.58-2.353a1.772 1.772 0 00-.04-.51s1.173.04 1.016.942a2.75 2.75 0 01-.195.51s1.446.157 1.641-.47a1.573 1.573 0 00-.195-.942c.206-.042.419-.042.625 0a1.408 1.408 0 011.095 1.608c-.117.784-.782 1.137-1.564 1.255a3.41 3.41 0 01-.781-.04l-.196-.039.04.353a.484.484 0 01-.079.275.493.493 0 01-.273.157l-.04.235a.974.974 0 01-.273.196.993.993 0 01-.352 0l-.039-.353s-.508-.784-1.212-.51c-.469.196-.312 1.137-.039 1.804.743 1.726 1.681 1.96 1.955 3.765.39 2.51-2.228 2.667-2.228 2.667.08.079.146.172.195.274a.881.881 0 01-.039.392 1.13 1.13 0 00-.234.157 2.54 2.54 0 00-.313.353c-.146.131-.303.25-.47.353a2.632 2.632 0 01-.116-.275c-.118-.353.039-.627-.196-.94-.234-.314-.547-.236-.899-.393-.547-.235-.899-1.02-1.329-.706-.234.157-.078.47-.156.785-.078.235-.195.627-.195.627s.469.157.586.431c.09.252.103.525.039.785.412.224.656.668.625 1.137a.786.786 0 01-.156.51c-.195.313-.469.392-.743.627a3.02 3.02 0 01-.742.667c-.43.235-.86-.04-1.25.274a2.79 2.79 0 00-.704 1.137 1.093 1.093 0 01-.313-.195 2.316 2.316 0 01-.47-.824c-.1-.041-.204-.067-.312-.079-.352.04-.43.824-.43.824s-.625-.392-.703-.823a1.4 1.4 0 01.117-.746l-.469-.039c0-.118.014-.237.04-.353.116-.392.429-.549.82-.706.508-.235.86 0 1.407-.039.86-.078 1.172-1.686.782-1.804a.839.839 0 00-.313 0c-.12.033-.237.072-.352.118a3.04 3.04 0 01-.039-.392c.04-.208.04-.42 0-.628a1.703 1.703 0 00-.195-.392l-.352-.431c.002.206-.052.41-.156.588a1.951 1.951 0 01-.274.196c.081.157.122.333.117.51-.117.274-.508.04-.781.196a1.1 1.1 0 00-.313.314s-.665.078-1.095.117c-.938.04-1.211-.431-1.211-.431l-.117-.118c-.119.001-.237-.012-.352-.039A.431.431 0 014.846 18a1.913 1.913 0 01-.469-.118 2.202 2.202 0 01-.508-.431v-.196a1.951 1.951 0 00-.625-.275 2.755 2.755 0 00-1.25.275 1.499 1.499 0 01-.04-.51c.071-.219.208-.41.391-.549h-.352a2.117 2.117 0 01-.039-.314c.04-.313.586-.549.586-.549l-.078-.235c.37-.187.765-.32 1.173-.392a2.45 2.45 0 011.211.235c.391.236-.117.902-.117.902.13.022.26.035.391.04.156 0 .235-.08.39-.118a4.699 4.699 0 011.486.078l.04-.392-.587-.04-.586-.038c.042-.191.107-.375.195-.55.235-.43.508-.549.86-.94.188-.213.346-.45.469-.706.378.148.771.253 1.172.313.248.021.496.021.743 0a3.191 3.191 0 00-.195-.549c-.079-.118-.352-.078-.43-.157a3.584 3.584 0 00-.313-.51c-.274-.196-.508-.352-.508-.352a2.73 2.73 0 01-.508.196c-.352.078-.547 0-.9.078-.35.079-.468.196-.742.275-.547.117-.938-.079-1.485 0-.117 0-.352.274-.625.313a2.996 2.996 0 01-.391-.039l.117.588a1.044 1.044 0 01-.508.118c-.743-.118-.39-1.059-.39-1.059L2.618 12c-.117.02-.234.033-.352.04a1.559 1.559 0 01-.547-.158l-.508.275a2.411 2.411 0 01-.196-.431.962.962 0 01.352-.98c.245-.157.53-.238.82-.236l-.312-.353a.931.931 0 01.352-.353c1.211-.47 1.524.51 1.524.51l1.993-.667a3.373 3.373 0 01-1.133-.392 2.108 2.108 0 01-.47-.55l-.234-.47-.117-.353a1.195 1.195 0 00-.273.314c-.09.187-.156.385-.196.588l-.547-.039a3.102 3.102 0 010-.627 3.18 3.18 0 01.195-.589l-.625.157a4.1 4.1 0 01-.039-.431c.011-.108.037-.214.078-.314 0 0-.117-.078-.195-.117C1.798 6.43 2.5 5.45 2.5 5.45l-.117-.078c-.143.12-.262.267-.352.43-.078.08-.078.432-.078.432a2.017 2.017 0 01-.469-.823.952.952 0 010-.353 1.146 1.146 0 01-.352-.118 1.989 1.989 0 01-.664-.667c.137.068.281.121.43.157.208.022.417.022.625 0a1.78 1.78 0 01.352-.274c.186-.09.383-.156.586-.196l.274-.04a1.56 1.56 0 01-.508-.156c-.391-.236-.391-.55-.547-.902-.157-.353-.821-.47-.821-.47.143-.188.331-.337.547-.432.27-.022.54.032.782.157.077-.262.21-.503.39-.706.228-.133.481-.213.743-.236a1.45 1.45 0 00-.234.628c0 .353.156.47.39.823.138.296.217.616.235.942 0 0 .078-.353.117-.589a3.775 3.775 0 00-.273-1.294.854.854 0 01.351-.117c.088.036.168.09.235.156l.117-.156a4.1 4.1 0 01-.039-.432c.053-.188.147-.362.274-.51.161.206.36.379.586.51.345.09.705.104 1.055.04 0 0 .196.039.313.078.117.04.352.314.352.314a3.674 3.674 0 00-.391.156.645.645 0 00-.235.197l.157.196a1.372 1.372 0 00-.47.078c-.096.071-.188.15-.273.235a.877.877 0 01.274.04c.121.09.216.212.273.353l.352-.118c.452-.037.907.03 1.329.196a.7.7 0 00-.274.196 1.13 1.13 0 00-.156.235c.158.116.29.263.39.432.027.241-.013.486-.116.706a2.614 2.614 0 00-.235-.432 1.658 1.658 0 00-.469-.196s-.195.353-.39.353a.692.692 0 01-.783-.549l-.43-.118c.166.163.287.366.352.589v.196c.227-.001.452.038.665.117.469.196.469.667.82 1.02.086.073.177.139.274.196-.215.064-.44.09-.664.078a2.104 2.104 0 01-.508-.235s-.079.392-.313.47a.931.931 0 01-.547-.078c-.022.264.004.53.078.785.23.303.542.534.899.666.236-.194.5-.352.782-.47.293-.074.597-.1.898-.079.001-.093.014-.185.04-.274a2.44 2.44 0 01.234-.588c.165.187.349.358.547.51.157.078.43.195.43.195a2.1 2.1 0 00.274-.47zM7.113 9.412v.078s-1.133.47-1.915.745c-.625.196-1.602.432-1.602.432s-.235-.589-.587-.706a1.56 1.56 0 00-.781.157s.508.039.664.274c.052.138.079.284.078.431h-.195c-.352.04-.586-.156-.938 0a1.013 1.013 0 00-.547.432 1.211 1.211 0 00-.078.431 1.192 1.192 0 01.742-.431l-.039.274c.141.047.285.086.43.118.185-.008.368-.034.547-.078l-.195.627a.82.82 0 00-.235.431.5.5 0 00.04.236c.078.157.39.196.39.196s-.156-.353-.039-.55c.117-.195.391-.078.625-.156.23-.101.452-.22.665-.353.43-.118 1.016.118 1.602 0 .235-.04.352-.118.626-.157a4.97 4.97 0 00.781-.04c.26-.097.499-.243.704-.43l.234.313s.196.079.274.118c.187.155.345.34.47.549.079 0 .158.013.234.04.39.156.234.666.586.94.1.061.204.114.313.157l.195.236a7.215 7.215 0 01-1.407.117 7.37 7.37 0 01-1.094-.235 3.391 3.391 0 01-.352.47c-.196.197-.391.236-.587.432a3.03 3.03 0 00-.39.549 2.56 2.56 0 01.742-.079c.135.041.265.094.391.157a4.787 4.787 0 000 .785c.04.156.078.392.078.392-.648-.085-1.3-.124-1.954-.118a6.976 6.976 0 01-.899.078 2.115 2.115 0 01-.43-.078 3.2 3.2 0 01.078-.353c.074-.191.166-.375.274-.549a2.686 2.686 0 00-.938-.274 1.802 1.802 0 00-.743.274l.235.118-.274.157-.742.353c.248-.022.498-.009.742.039.083.03.161.07.235.117 0 0-.196.118-.313.197a3.95 3.95 0 00-.469.51c.309-.064.623-.09.938-.08.27.04.526.148.743.315.156.117.156.274.312.392.178.109.379.176.587.196.061.083.141.15.234.196a.893.893 0 00.47 0s.077.196.116.314c.352.588 1.76.235 1.76.235.1-.122.218-.228.351-.314.215-.068.443-.082.664-.039l-.351-.549a1.27 1.27 0 00.39-.118.934.934 0 00.235-.431s-.078-.745.04-.745c.429 0 .859.823.937 1.53.021.182.021.366 0 .548a.616.616 0 01.743.118c.39.47.117 1.882-.743 2.274a3.69 3.69 0 01-.352.118c-.469.118-.781-.235-1.25-.04-.257.122-.494.28-.704.472l.586-.079s-.508.745-.312 1.177c.07.097.15.189.234.274a1.67 1.67 0 01.196-.47c.273-.275.938-.04.938-.04l.39.863c.14-.498.5-.902.978-1.098.39-.157.703 0 1.055-.235.274-.157.352-.353.625-.55.196-.156.508-.392.508-.392s.352-.196.235-.901c-.078-.354-.704-.628-.704-.628.085-.106.151-.225.196-.353.078-.392-.743-.745-.743-.745.064-.278.142-.553.235-.823.156-.471-.118-1.06.547-1.177.664-.118.899.549 1.524.784.352.157.704.079.938.353.16.287.241.612.235.941.078-.16.184-.306.312-.431.079-.04.196-.118.196-.118l.039-.117s-.156-.196-.274-.314a1.69 1.69 0 00-.351-.235h.195a4.008 4.008 0 001.563-.432c.977-.588.977-1.059.9-1.882-.118-1.372-1.095-1.922-1.76-3.333-.43-.902-.82-2.157-.312-2.55a1.252 1.252 0 011.798.236c.091.159.157.33.195.51 0 0 0-.275.117-.353a.686.686 0 01.235-.04.788.788 0 00.078-.235c.04-.274-.43-.588-.43-.588l.586.079s1.76.274 2.189-.51c.266-.357.281-.843.04-1.216a1.671 1.671 0 00-.744-.431.9.9 0 01-.078 1.02c-.156.235-.899.47-1.758.43-.347.023-.682.131-.978.314.125-.22.27-.43.43-.627.196-.235.43-.431.352-.706a.784.784 0 00-.234-.314 3.138 3.138 0 01-.196.628c-.469.745-1.993.47-2.306 1.608-.39 1.333 1.29 3.921 1.29 3.921l.235.431-1.29-.666-.9-.47-.976-.707s-.157.197-.118.314c.045.071.097.137.157.196l.195.118c.061.165.14.322.235.47.317.331.704.586 1.133.745l.743.314a2.337 2.337 0 01-.274.236c-.195.117-.39.039-.547.196a.573.573 0 00-.117.196c.062.163.101.335.117.51 0 .156-.078.235-.078.392.043.108.096.213.156.313 0 0 .47-.549.86-.588.39-.04 1.133 0 1.133.902.04.784-.977 1.137-2.266 1.098-1.29-.04-2.697-2.078-3.323-4a5.46 5.46 0 01-.351-2.117 4.2 4.2 0 01.43-1.295c.355-.103.688-.277.977-.51a3.02 3.02 0 00.547-1.137s.43-.196.508-.431a1.09 1.09 0 00-.078-.706l.43-.353c-.273.17-.58.277-.9.314-.202-.02-.4-.073-.585-.157.148.17.279.353.39.549.084.214.137.438.157.667l-.196-.55c.085.294.099.603.04.903-.118.47-.821.98-.821.98s.586-.784.547-1.333c0-.353-.196-.51-.235-.824-.039-.157-.078-.392-.078-.392s.117-.157.078-.275a.43.43 0 00-.195-.196s.703-.705 1.25-.666c.329.052.638.187.9.392 0 0 .078-.392.273-.392a.78.78 0 01.235.078s.469.04.586-.353c.156-.706-1.446-1.059-1.446-1.059l.312-.47.157-.079-.117-.313-.352.078.039.157-.313.431s-.938-1.294-1.72-.706c-.351.236-.039.393-.039.667v.235l-.469.157s.117.157.079.275a.553.553 0 01-.118.196c-.18.04-.363.067-.547.078a2.89 2.89 0 01-.625-.117c0 .109-.027.217-.078.313-.04.079-.118.079-.196.157a.565.565 0 00-.078.118l.039.078s.782-.157.782.55a.534.534 0 01-.587.548v.236c-.006.079-.019.158-.039.235.2-.023.4.004.587.078.083.06.162.125.234.196a1.174 1.174 0 01-.39.353c-.43.236-.822 0-1.251-.235a3.823 3.823 0 01-.548-.51c-.022.255.019.51.118.745.118.156.263.29.43.393 0 0-.548.117-.9.235-.355.15-.695.334-1.016.549a4.03 4.03 0 011.251-.235c.355.063.698.182 1.016.353l-.195.274.313-.157v.353s.43-.353.703-.588c.2-.221.383-.457.547-.706 0 .199-.027.396-.078.588-.082.27-.186.532-.313.785 0 0 .391-.275.626-.471.254-.243.49-.505.703-.784 0 0-.625 1.294-1.368 1.686a3.43 3.43 0 01-.82.235c.209-.21.405-.432.586-.666.153-.208.284-.432.39-.667-.166.21-.35.406-.546.588a5.55 5.55 0 01-1.251.745c.185-.123.356-.268.508-.431.057-.089.109-.18.156-.275-.075.057-.153.11-.234.157-.33.095-.676.122-1.016.079.176-.045.347-.111.508-.196.199-.121.383-.266.547-.432a7.141 7.141 0 00-1.016-.117 6.088 6.088 0 00-1.681.392c.335-.422.73-.792 1.173-1.098.283-.147.586-.252.898-.314a2.915 2.915 0 00-1.133-.196c-.355.119-.676.32-.938.588l-.274-.078a2.578 2.578 0 01-1.055-.902 2.754 2.754 0 01-.078-1.06 5.182 5.182 0 00-1.016-.47 5.773 5.773 0 00-1.095-.039c0 .173-.026.345-.078.51A2.38 2.38 0 012.62 6a3.7 3.7 0 00-.157.392l.235.04-.04.352.235.04-.156.43c.239-.086.489-.139.742-.156.183.004.366.017.548.04-.006.206.048.41.156.587.163.118.35.199.547.236-.09.022-.181.035-.273.039a.85.85 0 01-.235-.04c.178.156.375.288.586.393l.352.118c-.13.021-.26.034-.39.039a.85.85 0 01-.235-.04c.067.067.147.12.234.157.248.11.512.177.782.197a.78.78 0 01-.274.078 1.029 1.029 0 01-.273.04c.303.151.617.282.938.391.383.095.78.122 1.172.079zM3.323 7.45s-.157.314-.235.51a1.912 1.912 0 00-.079.549h.157c.043-.173.095-.343.156-.51.09-.19.195-.374.313-.549h-.313zM1.68 2.275c.2.118.374.278.508.47.117.235 0 .392.117.628.234.43.782.156 1.172.392.05.042.102.081.157.117a1.197 1.197 0 01-.196-.353c-.117-.235-.039-.47-.195-.666-.156-.196-.313-.196-.43-.392a1.255 1.255 0 010-.785c-.12.118-.224.25-.313.392a2.16 2.16 0 00-.039.667s-.312-.431-.586-.47h-.195zm3.517-.785a1.775 1.775 0 01-.664-.47v.431c.078.549.43.314.469.627a1.6 1.6 0 01-.078.393h.312c.04-.186.12-.36.235-.51a2.01 2.01 0 01.82-.432 2.196 2.196 0 00-.273-.039c-.313-.078-.508.079-.82 0zm.313 1.804h.234c.352.04.43.588.782.51.352-.079.274-.55.586-.706.076-.032.155-.059.235-.078a3.007 3.007 0 00-.391-.04c-.234 0-.313.157-.547.196-.235.04-.313-.078-.47-.039a.963.963 0 00-.43.157zm2.775.98c.06.06.112.125.156.197.157.235-.039.47.117.705.235.353 1.056.275 1.056.275a1.09 1.09 0 01-.352-.196c-.195-.196-.078-.431-.274-.667a1.885 1.885 0 00-.703-.314zm4.73.98a1.444 1.444 0 00-.587.315c.121.082.252.148.39.196a1.56 1.56 0 00.978-.236 1.56 1.56 0 00-.782-.274zm-3.05-.234a.653.653 0 00-.117.392c.086.09.194.158.313.196 0 0 .117-.196.078-.314-.039-.118-.273-.274-.273-.274z" fill="#fff"/></svg>