<svg width="116" height="20" viewBox="0 0 116 20" fill="none" xmlns="http://www.w3.org/2000/svg">
<path fill-rule="evenodd" clip-rule="evenodd" d="M36.8779 5.4054H35.3361C33.1777 5.4054 31.9442 6.1776 31.3275 6.9498H31.2504V0H28.1669V19.5366H31.2504V18.2239H31.4046C32.2526 19.3822 33.8714 19.9227 35.7987 19.9227H36.8008C40.8865 19.9227 43.8929 18.9189 43.8929 14.2085V11.3513C43.8158 6.9498 41.8886 5.4054 36.8779 5.4054ZM40.7333 13.6677C40.7333 16.2932 40.0395 17.4515 36.4164 17.4515H35.7226C32.2536 17.4515 31.3285 16.5248 31.3285 13.8994V11.1967C31.3285 7.95343 33.4099 7.87621 36.1851 7.87621H36.4935C39.2686 7.87621 40.7333 8.33953 40.7333 11.5055V13.6677ZM80.9667 5.7915H76.881V4.47876C76.881 3.24324 77.6519 2.3166 79.3478 2.3166H82.4314V0H78.3457C75.8788 0 73.7975 1.31274 73.7975 4.55598V5.7915H72.1786V8.26254H73.7975V20H76.881V8.26254H80.9667V5.7915ZM66.3211 15.444V8.26254H70.4068V5.7915H66.3211V0H63.2376V5.7915H61.6187V8.26254H63.2376V15.444C63.2376 18.6872 65.319 20 67.7858 20H71.5631V17.5289H68.4796C66.8607 17.4517 66.3211 16.6023 66.3211 15.444ZM98.6183 3.0888H101.702V0H98.6183V3.0888ZM98.6183 19.9229H101.702V5.4055H98.6183V19.9229ZM54.0669 5.4055H52.6022C49.4416 5.4055 45.5101 5.94604 45.5101 10.8881V14.2858C45.5101 19.0734 48.8249 19.8456 51.7542 19.8456H54.5294C58.2297 19.8456 59.9256 18.6873 60.3881 16.6024L57.613 15.9074C57.1504 17.1429 56.0712 17.529 53.6814 17.529H52.9877C49.0561 17.529 48.4394 17.0657 48.4394 13.8997H60.6194V11.197C60.6194 6.33214 58.0755 5.4055 54.0669 5.4055ZM48.4398 11.4283V10.965C48.4398 8.18509 49.7503 7.87621 52.9109 7.87621H53.5276C57.0737 7.87621 57.5362 8.80285 57.5362 10.5789V11.3511L48.4398 11.4283ZM88.9846 5.4055H87.8283C83.6655 5.4055 81.8925 6.71824 81.7383 8.57152L84.6677 9.57538C84.8219 8.26264 86.2865 7.87654 88.5992 7.87654C91.9911 7.87654 92.762 8.1082 92.762 10.502V11.8148H92.6849C91.914 10.8109 90.8348 10.502 88.2138 10.502H86.9803C83.0488 10.502 80.8133 11.5059 80.8133 14.5947V15.4441C80.8133 17.9924 81.8154 19.8456 85.9011 19.8456H88.9075C91.8369 19.8456 92.1453 19.3823 92.762 18.5329H92.8391V19.8456H95.9226V10.5792C95.8455 6.5638 93.1474 5.4055 88.9846 5.4055ZM92.8388 15.5993C92.8388 16.9893 91.9137 17.4526 88.2906 17.4526H87.4426C84.3591 17.4526 83.9736 16.8348 83.9736 15.6765V14.9043C83.9736 13.5144 84.7445 13.0511 87.2884 13.0511H88.676C90.9886 13.0511 92.8388 13.5144 92.8388 15.0588V15.5993ZM111.029 5.4055C109.642 5.4055 108.254 5.94604 107.406 7.336H107.329V5.4055H104.4V19.9229H107.483V11.197C107.483 9.42094 108.485 7.87654 110.875 7.87654C112.571 7.87654 113.419 8.33986 113.573 8.80318L115.5 7.49044C115.038 6.1777 113.727 5.4055 111.029 5.4055ZM22.8724 0H14.8393V4.0625H10.5497L18.8949 13.75L27.162 3.98438H22.8724V0ZM0.499512 15.9375H4.78906V20H12.8222V15.9375H17.1118L8.84464 6.25L0.499512 15.9375Z" fill="#18181A"/>
</svg>
