<svg width="83" height="24" fill="none" xmlns="http://www.w3.org/2000/svg"><path d="M31.216 9.146c.056.207-.013.332-.18.388l-1.591.47c-.194.056-.291 0-.36-.193-.25-.818-.775-1.247-1.758-1.247-1.495 0-2.007.886-2.007 2.078v2.744c0 1.191.498 2.078 2.007 2.078 1.232 0 1.882-.568 1.882-1.829v-.36h-1.62c-.138 0-.22-.07-.22-.236v-1.524a.215.215 0 01.193-.236H31.19c.152 0 .235.07.235.222v2.273c0 2.161-1.592 3.796-4.07 3.796-2.934 0-4.304-1.746-4.304-4.129v-2.896c0-2.383 1.37-4.13 4.305-4.13 2.366.015 3.432 1.373 3.861 2.73zm8.07 2.702v5.32c.014.111-.083.208-.193.222H37.445a.215.215 0 01-.235-.194v-.9a2.56 2.56 0 01-2.242 1.26c-1.537 0-2.52-.983-2.52-2.508 0-1.482.928-2.355 3.198-2.521.484-.042.983-.042 1.481-.014v-.596c0-.79-.415-1.109-1.121-1.109-.72 0-.928.291-1.121.749-.07.18-.139.207-.291.166l-1.62-.416c-.166-.041-.18-.138-.152-.25.222-1.163 1.329-2.022 3.267-2.022 2.049.014 3.197.997 3.197 2.813zm-2.159 2.799v-.776c-.43-.014-.872 0-1.301.041-.83.097-1.26.36-1.26.984 0 .568.388.887 1.01.887.72 0 1.288-.388 1.551-1.136zm8-5.598c1.025 0 1.703.61 2.022 1.482.609-.887 1.343-1.482 2.367-1.482 1.425 0 2.242 1.136 2.242 2.826v5.294c0 .138-.124.221-.263.221h-1.688c-.153 0-.264-.083-.264-.221v-4.906c0-.734-.318-1.178-.9-1.178-.608 0-1.051.5-1.259 1.261v4.823c.014.11-.083.207-.194.221H45.35c-.138 0-.193-.083-.193-.221v-4.906c0-.734-.333-1.178-.9-1.178-.623 0-1.066.527-1.26 1.29v4.807a.202.202 0 01-.18.222H40.99a.202.202 0 01-.221-.18V9.45c0-.11.096-.207.207-.207h1.73c.111-.014.208.069.222.194V10.379c.47-.693 1.176-1.33 2.2-1.33zm15.892.18c.041.194-.014.332-.194.388l-1.564.457c-.194.055-.291-.014-.36-.194-.222-.734-.61-1.33-1.689-1.33-1.343 0-1.772.887-1.772 2.078v2.744c0 1.191.485 2.078 1.772 2.078 1.149 0 1.592-.651 1.772-1.455.041-.18.166-.263.36-.194l1.564.5c.18.055.235.193.194.387-.374 1.594-1.523 2.896-3.904 2.896-2.685 0-4.028-1.746-4.028-4.13V10.56c0-2.383 1.384-4.13 4.028-4.13 2.326 0 3.42 1.234 3.82 2.8zm7.848 2.619v5.32c.014.111-.083.208-.194.222h-1.647a.215.215 0 01-.235-.194v-.9a2.56 2.56 0 01-2.243 1.26c-1.536 0-2.519-.983-2.519-2.508 0-1.482.927-2.355 3.198-2.521.484-.042.982-.042 1.48-.014v-.596c0-.79-.414-1.109-1.12-1.109-.72 0-.928.291-1.122.749-.069.18-.138.207-.29.166l-1.62-.416c-.166-.041-.18-.138-.152-.25.221-1.163 1.329-2.022 3.267-2.022 2.048.014 3.197.997 3.197 2.813zm-2.173 2.799v-.776c-.43-.014-.872 0-1.301.041-.83.097-1.26.36-1.26.984 0 .568.388.887 1.01.887.734 0 1.288-.388 1.55-1.136zm8.471-5.266v1.58c0 .194-.069.263-.263.263h-.235c-1.177 0-1.869.527-2.104 1.413v4.545a.202.202 0 01-.18.222h-1.869c-.11 0-.194-.097-.194-.208V9.437c0-.111.084-.208.18-.208h1.703c.18 0 .221.11.221.235v1.095c.388-.72 1.108-1.427 2.368-1.427.318 0 .373.041.373.25zm2.893 4.614v.305c0 .86.443 1.455 1.481 1.455 1.01 0 1.302-.388 1.565-.873.138-.222.193-.25.429-.152l1.162.595c.236.125.25.236.153.458-.499 1.136-1.758 1.787-3.309 1.787-2.353 0-3.599-1.4-3.599-3.311v-1.885c0-1.857 1.163-3.312 3.572-3.312 2.297 0 3.419 1.455 3.419 3.27v1.303c0 .222-.07.374-.388.374l-4.485-.014zm0-1.732v.277h2.838v-.277c0-.79-.443-1.413-1.412-1.413-.969 0-1.426.623-1.426 1.413zM15.445 2.495H2.257v15.327l4.396 4.515H12l6.178-4.515V7.129l-2.733-4.634z" fill="#fff"/><path d="M10.2 0H.305A.308.308 0 000 .305v14.392C0 19.827 4.158 24 9.3 24h.9c5.128 0 9.285-4.16 9.285-9.303V9.303A9.273 9.273 0 0010.2 0zm6.32 14.85c0 3.493-2.578 6.141-6.57 6.141-4.74 0-6.957-2.814-6.957-6.669V9.65c0-3.855 2.218-6.67 6.957-6.67 3.84 0 5.572 2.192 6.265 4.382.096.333-.028.527-.291.624l-2.578.763c-.305.097-.471 0-.568-.305-.402-1.317-1.261-2.025-2.828-2.025-2.425 0-3.242 1.428-3.242 3.356v4.436c0 1.928.803 3.356 3.242 3.356 1.996 0 3.05-.93 3.05-2.954v-.568h-2.662c-.207 0-.36-.125-.36-.374v-2.454c0-.236.139-.389.36-.389h5.807c.236 0 .374.125.374.36v3.661z" fill="#2E008B"/></svg>