<svg width="89" height="16" fill="none" xmlns="http://www.w3.org/2000/svg"><path d="M42.96 15.818H.929a.748.748 0 01-.748-.748V7.787A7.607 7.607 0 017.787.174h35.174c.413 0 .748.335.748.749v14.149a.748.748 0 01-.748.748v-.002z" fill="#39A8E0"/><path d="M42.96 16H.929A.928.928 0 010 15.072V7.789A7.796 7.796 0 017.793 0H42.96c.512 0 .928.416.928.928v14.144a.928.928 0 01-.928.928zM7.794.361A7.435 7.435 0 00.365 7.79v7.283a.569.569 0 00.563.57h42.033a.569.569 0 00.567-.567V.928a.569.569 0 00-.567-.567H7.793z" fill="#1D1D1B"/><path d="M14.859 7.433v5.84c0 .061-.05.111-.112.111h-2.284a.112.112 0 01-.112-.112.112.112 0 00-.146-.104 4.565 4.565 0 01-.701.165A5.502 5.502 0 018.593 13a5.283 5.283 0 01-1.8-1.194 5.211 5.211 0 01-1.187-1.793 5.542 5.542 0 01-.39-2.042 5.6 5.6 0 01.388-2.052c.266-.677.67-1.29 1.187-1.8a5.281 5.281 0 011.8-1.194 5.476 5.476 0 014.1 0c.64.256 1.224.634 1.719 1.115a.112.112 0 010 .16l-1.613 1.612a.112.112 0 01-.154 0 2.811 2.811 0 00-.895-.567 2.968 2.968 0 00-2.213 0 2.935 2.935 0 00-.974 4.8 2.919 2.919 0 001.851.85c.34.025.682-.007 1.011-.095.315-.084.613-.222.88-.409a.112.112 0 00.048-.092v-.376a.112.112 0 00-.112-.112h-1.944a.112.112 0 01-.112-.111V7.433c0-.062.05-.112.112-.112h4.452c.062 0 .112.05.112.112zM23.385 13.322l-.367-1.165a.112.112 0 00-.106-.077h-3.25c-.048 0-.09.03-.105.075l-.39 1.169a.112.112 0 01-.105.075h-2.407a.112.112 0 01-.105-.147l3.612-10.603a.112.112 0 01.105-.075h2.201c.049 0 .091.03.107.077l3.42 10.607a.112.112 0 01-.106.144h-2.384a.112.112 0 01-.12-.08zm-2.792-3.733h1.448a.112.112 0 00.106-.145l-.704-2.165a.112.112 0 00-.211 0l-.734 2.165a.112.112 0 00.095.145zM35.56 2.559h2.385c.059 0 .107.046.11.105l.622 10.617a.112.112 0 01-.11.118h-2.273a.112.112 0 01-.11-.105L35.96 9.54a.112.112 0 00-.217-.03l-1.297 3.814a.112.112 0 01-.104.076h-2.334a.112.112 0 01-.104-.075l-1.387-4.005a.112.112 0 00-.217.03l-.253 3.947a.112.112 0 01-.11.105h-2.285a.112.112 0 01-.11-.118l.678-10.618a.112.112 0 01.11-.104h2.385c.047 0 .09.03.105.075l2.241 6.402a.112.112 0 00.21 0l2.186-6.404a.112.112 0 01.105-.075z" fill="#fff"/><path d="M45.44.183h42.032c.413 0 .748.336.748.749v7.283a7.607 7.607 0 01-7.607 7.607H45.439a.748.748 0 01-.748-.748V.928a.748.748 0 01.748-.745z" fill="#1D1D1B"/><path d="M80.62 16H45.44a.928.928 0 01-.929-.928V.928c0-.512.416-.928.928-.928h42.033c.512 0 .928.416.928.928v7.283A7.796 7.796 0 0180.62 16zM45.44.361a.569.569 0 00-.568.567v14.144a.569.569 0 00.567.567H80.62a7.435 7.435 0 007.428-7.428V.928a.569.569 0 00-.567-.567H45.439z" fill="#fff"/><path d="M51.65 13.399c-.346 0-.691-.047-1.025-.14a3.622 3.622 0 01-2.205-1.77 3.686 3.686 0 01-.44-1.678.112.112 0 01.112-.114h2.27c.06 0 .109.048.11.108.001.207.065.409.184.578.093.13.208.242.34.332.171.113.37.177.576.183.208.01.415-.03.605-.117a.98.98 0 00.515-.48.711.711 0 00.081-.245 1.25 1.25 0 000-.383.787.787 0 00-.08-.251 1.007 1.007 0 00-.184-.259 1.271 1.271 0 00-.332-.23 3.223 3.223 0 00-.347-.131c-.122-.04-.252-.083-.39-.132-.245-.079-.5-.167-.767-.266a4.284 4.284 0 01-.796-.398 3.12 3.12 0 01-.866-.802 3.22 3.22 0 01-.613-2.201c.035-.4.148-.788.332-1.143a3.183 3.183 0 011.548-1.458 3.214 3.214 0 011.048-.26c.381-.028.765.007 1.135.103a3.303 3.303 0 011.794 1.118c.222.27.394.576.51.906.106.3.164.615.175.933a.112.112 0 01-.112.114h-2.262a.11.11 0 01-.11-.097.47.47 0 00-.21-.367 1.52 1.52 0 00-.366-.172h-.026a.628.628 0 01-.127-.022.715.715 0 00-.25 0 .886.886 0 00-.289.102c-.099.057-.18.14-.23.243a.66.66 0 00-.045.493c.045.167.15.311.295.405.147.084.3.155.457.215.168.064.344.125.53.184.168.048.337.102.508.16.172.06.345.129.521.208a3.467 3.467 0 012.068 3.201 3.42 3.42 0 01-.55 1.888 3.669 3.669 0 01-2.297 1.556 3.993 3.993 0 01-.794.086zM84.93 7.13c.005.6-.113 1.195-.346 1.749a4.553 4.553 0 01-.96 1.438 4.632 4.632 0 01-1.423.981c-.515.226-1.07.351-1.632.367a.11.11 0 00-.109.11v1.508a.112.112 0 01-.111.112H78.08a.112.112 0 01-.112-.112v-10.6c0-.061.05-.111.112-.111h2.385c.6.006 1.193.136 1.74.383.532.24 1.015.575 1.424.99.409.413.735.901.96 1.437.23.554.347 1.149.34 1.748zm-4.468 1.932a.11.11 0 00.12.112 2.128 2.128 0 001.282-.627 2.063 2.063 0 000-2.856 2.132 2.132 0 00-1.282-.628.11.11 0 00-.12.112v3.887zM70.254 2.574A5.24 5.24 0 0172.365 3a5.425 5.425 0 012.886 2.876c.57 1.35.57 2.871 0 4.22a5.422 5.422 0 01-2.886 2.876 5.412 5.412 0 01-7.092-2.876 5.414 5.414 0 014.98-7.523zm0 8.332a2.84 2.84 0 001.135-.23 2.935 2.935 0 001.556-1.555 2.935 2.935 0 000-2.271 2.935 2.935 0 00-1.556-1.556 2.935 2.935 0 00-2.27 0c-.701.297-1.26.855-1.556 1.556a2.935 2.935 0 000 2.27c.297.701.855 1.26 1.555 1.557.361.154.75.232 1.143.229h-.007zM59.317 4.948h2.098c.115 0 .208.092.208.207v8.034a.208.208 0 01-.208.208h-2.098a.208.208 0 01-.208-.208V5.155c0-.115.093-.207.208-.207z" fill="#fff"/><path d="M57.255 2.572h6.222c.114 0 .207.093.207.208v2.097a.208.208 0 01-.207.208h-6.222a.208.208 0 01-.208-.208V2.78c0-.115.093-.208.208-.208z" fill="#fff"/></svg>