<svg width="666" height="56" viewBox="0 0 666 56" fill="#000" xmlns="http://www.w3.org/2000/svg">
    <path d="M450 21.525h4.389c1.963 0 2.656.06 3.234.292.527.246.972.643 1.28 1.142.307.498.465 1.077.452 1.664 0 1.168-.347 1.751-1.494 2.335.592.19 1.103.577 1.449 1.098.346.521.507 1.145.457 1.77 0 1.927-1.502 3.21-3.696 3.21H450v-1.88h.866v-7.763H450v-1.868zm3.233 1.868v2.802h2.252c.81.058 1.56-.526 1.618-1.343v-.116c0-.755-.747-1.343-1.792-1.343h-2.078zm0 4.612v3.152h2.426c.924.058 1.732-.585 1.792-1.517v-.06c-.002-.991-.81-1.636-2.022-1.636l-2.196.06zM469.346 30.165c-.405 1.926-1.964 3.093-4.043 3.093-2.425 0-4.216-1.926-4.216-4.612s1.793-4.61 4.216-4.61a3.929 3.929 0 011.903.474 3.985 3.985 0 011.446 1.337c.6.98.902 2.118.867 3.27h-6.238c.232 2.277 1.676 2.393 2.079 2.393.397.015.788-.102 1.112-.335.324-.232.563-.566.68-.95l2.196-.057-.002-.003zm-2.195-2.567a1.763 1.763 0 00-.509-1.236 1.73 1.73 0 00-1.224-.515h-.058c-.47.01-.922.184-1.279.492a2.062 2.062 0 00-.683 1.199l3.753.057v.003zM476.564 27.304h3.984v5.72h-1.276v-1.812c-.238.408-.53.78-.867 1.108a4.005 4.005 0 01-2.598.994c-2.656 0-4.734-2.627-4.734-6.013s2.084-6.067 4.683-6.067c1.443-.059 2.714.755 3.406 1.984v-1.812h1.213v3.68h-1.271a3.846 3.846 0 00-.634-1.4 3.391 3.391 0 00-1.078-.903 3.347 3.347 0 00-1.348-.382c-1.386 0-3.465 1.226-3.465 4.787 0 2.802 1.501 4.844 3.465 4.844a3.306 3.306 0 002.033-.822 3.363 3.363 0 001.085-1.92 5.04 5.04 0 00.059-.935h-2.715l.058-1.057v.006zM490.25 33.077h-2.484v-1.57a3.32 3.32 0 01-1.231 1.29 3.278 3.278 0 01-1.714.46c-1.443.117-2.714-1.056-2.829-2.51v-.175c0-1.692 1.443-2.509 4.908-2.859l.809-.059v-.875c0-.992-.746-1.635-1.964-1.635-1.217 0-1.844.409-2.078 1.576h-1.328c.112-.7.459-1.339.981-1.812.635-.525 1.494-.754 2.31-.754 1.793 0 3.286.816 3.286 3.035v4.843h1.213l.115 1.057.006-.012zm-2.484-4.547l-.808.116c-2.657.35-3.523.818-3.523 1.926.026.462.226.895.56 1.21.334.316.775.49 1.232.484a2.64 2.64 0 001.676-.675c.464-.416.769-.982.863-1.601v-1.46zM493.888 25.903c.404-.584 1.154-1.811 2.771-1.811 1.155 0 1.793.584 2.021 1.811.217-.406.49-.78.81-1.11a2.763 2.763 0 011.847-.754c1.328 0 2.079.875 2.079 2.392v5.542h1.212v1.057h-2.425v-6.135c0-1.226-.405-1.811-1.271-1.811-1.501 0-2.309 1.811-2.309 2.451v4.438h1.27v1.057h-2.539v-6.31c0-1.108-.405-1.576-1.271-1.576-1.328 0-2.309 1.694-2.309 2.51v4.378h1.27v1.057h-3.755v-1.057h1.274v-6.77h-1.271v-1.057h2.539l.058 1.692-.001.006zM505.956 21h2.426v5.078c.346-.641 1.329-1.926 2.83-1.926 1.963 0 3.464 2.043 3.464 4.612 0 2.393-1.616 4.435-3.464 4.435-1.56 0-2.311-1.057-2.83-1.751v1.629h-2.483V32.02h1.213v-9.963h-1.156V21zm2.426 8.347c-.004.689.25 1.354.71 1.863a2.705 2.705 0 001.773.881c1.503 0 2.425-1.344 2.425-3.502 0-2.159-.981-3.445-2.425-3.445-1.271 0-2.539 1.4-2.539 2.685l.057 1.51-.001.008zM515.413 21h2.483v11.032h1.155v1.057h-3.691v-1.057h1.27v-10.04h-1.217V21zM527.544 30.631c-.112.5-.351.963-.693 1.342a3.567 3.567 0 01-2.776 1.285c-2.363 0-4.033-1.867-4.033-4.56 0-2.565 1.675-4.552 3.812-4.552 2.137 0 3.868 1.692 3.868 4.787h-6.298c.115 1.283.403 2.042.981 2.627.445.403 1.02.631 1.618.641.981 0 1.615-.466 2.078-1.51l1.443-.058v-.002zm-1.269-2.687c0-.823-.309-1.616-.867-2.217-.404-.35-.924-.585-1.444-.526a2.524 2.524 0 00-1.452.559 2.572 2.572 0 00-.858 1.309c-.057.292-.173.584-.173.875h4.794zM533.035 21.525h2.772l3.175 9.69h.866v1.862h-2.598l-.747-2.51h-4.05l-.747 2.51h-2.66v-1.861h.867l3.122-9.69zm1.386 2.16l-1.502 5.133h2.999l-1.497-5.132zM539.729 24.268h3.462v1.694h-.866l1.212 5.195 1.446-6.889h2.252l1.444 6.772 1.155-5.078h-.867v-1.694h3.465v1.694h-.747l-1.85 7.062h-2.313l-1.443-6.07-1.386 6.07h-2.307l-1.906-7.062h-.747v-1.694h-.004zM560.634 31.39h.747v1.687h-2.711V32.02c-.634.817-1.617 1.226-2.657 1.226-1.732 0-3.06-1.167-3.06-2.743 0-2.566 2.887-2.868 5.659-3.095 0-1.342-.461-1.75-1.559-1.75-1.098 0-1.501.524-1.559 1.343v.057l-2.079-.057c.116-1.751 1.502-2.861 3.584-2.861 2.425 0 3.695 1.11 3.695 3.093l-.057 4.145-.003.013zm-2.079-2.451c-2.022.175-3.35.35-3.35 1.576 0 .7.578 1.167 1.445 1.167a1.95 1.95 0 001.349-.539c.364-.347.584-.823.613-1.328v-.876h-.057zM565.479 25.67c.578-1.109 1.212-1.577 2.194-1.577.33.01.659.05.982.118v2.042a6.235 6.235 0 00-1.045-.116 1.93 1.93 0 00-1.411.47c-.389.34-.63.823-.668 1.342v3.383h1.045v1.692h-4.042v-1.692h.866v-5.37h-.866v-1.694h2.945v1.401zM577.374 30.165c-.403 1.926-1.962 3.093-4.041 3.093-2.425 0-4.216-1.926-4.216-4.612s1.792-4.61 4.216-4.61a3.932 3.932 0 011.903.474 3.974 3.974 0 011.445 1.337c.578.994.925 2.102.866 3.27h-6.236c.231 2.277 1.675 2.393 2.079 2.393.397.015.788-.102 1.112-.335.324-.232.563-.566.68-.95l2.194-.057-.002-.003zm-2.252-2.567a1.763 1.763 0 00-.509-1.236 1.725 1.725 0 00-1.223-.515h-.057c-.471.01-.923.184-1.281.493a2.067 2.067 0 00-.683 1.201l3.753.057zM578.585 31.927h1.08v1.067h-1.08v-1.067zM580.627 29.828c0-1.923 1.171-3.248 2.864-3.248 1.665.006 2.86 1.372 2.86 3.248 0 1.963-1.183 3.306-2.888 3.306-1.706 0-2.836-1.336-2.836-3.306zm2.837 2.521c1.183 0 1.891-.961 1.891-2.545 0-1.488-.747-2.44-1.891-2.44-1.144 0-1.822.951-1.822 2.487-.007 1.565.677 2.498 1.815 2.498h.007zM588.794 28.127c.299-.657.463-.856.747-1.125a1.74 1.74 0 011.137-.435c.225.009.45.032.673.071v.926a3.742 3.742 0 00-.661-.082c-1.694 0-1.891 1.771-1.891 1.865v2.908h1.066v.739h-2.858v-.739h.896v-4.83h-.928v-.755h1.822l-.003 1.457zM596.242 31.447c-.569.809-1.195 1.077-1.88 1.077-1.494 0-2.529-1.242-2.529-3.037 0-1.694 1.01-2.901 2.424-2.901 1.149 0 1.66.738 1.985 1.22v-1.133H598v.755h-.871v5.18c0 1.524-.963 2.392-2.657 2.392-1.032 0-1.914-.453-2.331-1.197a3.483 3.483 0 01-.255-.622h1.009c.371.755.811 1.045 1.643 1.045 1.056 0 1.694-.551 1.694-1.466l.01-1.313zm0-2.44c0-.691-.836-1.677-1.792-1.677-1.02 0-1.643.844-1.643 2.216 0 1.396.639 2.24 1.706 2.24.917 0 1.729-.906 1.729-1.642v-1.137z" />
    <path fill-rule="evenodd" clip-rule="evenodd" d="M666 28c0 7.732-6.268 14-14 14s-14-6.268-14-14 6.268-14 14-14 14 6.268 14 14zm-18.617 3.92h-1.522v-5.736a5.25 5.25 0 01-1.966 1.154v-1.381c.397-.13.828-.376 1.294-.737.466-.364.786-.789.959-1.273h1.235v7.974zm3.586-4.284c-.394-.166-.681-.393-.861-.682a1.818 1.818 0 01-.266-.96c0-.591.206-1.08.618-1.467.415-.386 1.004-.58 1.765-.58.755 0 1.34.194 1.755.58.419.386.629.876.629 1.468 0 .368-.096.697-.287.986a1.831 1.831 0 01-.807.655c.44.177.774.435 1.002.775.231.34.346.73.346 1.175 0 .733-.234 1.329-.704 1.788-.466.458-1.087.687-1.863.687-.722 0-1.324-.19-1.804-.568-.567-.448-.85-1.062-.85-1.842 0-.43.106-.823.319-1.18.213-.362.549-.64 1.008-.835zm.314-1.533c0 .303.085.54.255.71.173.17.402.254.687.254.289 0 .52-.084.694-.254.173-.174.26-.412.26-.715 0-.285-.087-.513-.26-.683-.17-.173-.396-.26-.677-.26-.293 0-.526.087-.699.26-.173.174-.26.403-.26.688zm-.141 3.402c0 .419.107.745.32.98.216.235.485.352.807.352.314 0 .574-.112.78-.336.206-.227.309-.554.309-.98 0-.372-.105-.67-.315-.894a1.035 1.035 0 00-.796-.341c-.372 0-.65.128-.834.385a1.417 1.417 0 00-.271.834zm6.765-.791v2.064h1.387v-2.064h2.085v-1.425h-2.085v-2.063h-1.387v2.063h-2.08v1.425h2.08zM56 28c0 15.464-12.536 28-28 28S0 43.464 0 28 12.536 0 28 0s28 12.536 28 28zM18.2 16.8h7.7v22.4h-7.7V16.8zm19.6 0h-7.7v22.4h7.7V16.8z" />
    <path d="M81.224 39.358h-7.64V23.091H68v-6.45h18.808v6.45h-5.584v16.267zM93.518 16.642h8.12l8.858 22.716h-8.312l-1.188-3.337h-7.222l-1.123 3.337h-8.088l8.955-22.716zm3.947 7.925l-1.861 5.615h3.69l-1.829-5.615zM119.591 30.31h-.064v9.048h-7.446V16.642h7.414v8.374h.064l6.066-8.374h8.987l-8.537 10.395 8.955 12.321h-9.373l-6.066-9.048zM136.528 16.642h15.631v6.353h-8.441v1.957h7.927v5.936h-7.927v2.117h8.987v6.353h-16.177V16.642zM174.373 39.358h-7.638V23.091h-5.585v-6.45h18.808v6.45h-5.585v16.267zM182.257 16.642h7.703v22.716h-7.703V16.642zM200.939 26.524l.353 12.834h-7.126V16.642h9.982l4.109 12.224h.16l3.563-12.224h10.303v22.716h-7.415l.225-12.77-.193-.032-4.236 12.802h-5.392l-4.173-12.834h-.16zM226.481 16.642h15.631v6.353h-8.441v1.957h7.927v5.936h-7.927v2.117h8.986v6.353h-16.176V16.642zM264.326 39.358h-7.639V23.091h-5.584v-6.45h18.808v6.45h-5.585v16.267zM270.211 27.872c0-1.819.321-3.455.963-4.91.641-1.475 1.519-2.727 2.631-3.753 1.134-1.027 2.472-1.819 4.012-2.375 1.541-.556 3.21-.834 5.007-.834 1.798 0 3.467.278 5.007.834 1.541.556 2.878 1.348 4.012 2.375 1.134 1.026 2.022 2.278 2.664 3.754.642 1.454.963 3.09.963 4.909 0 1.818-.321 3.476-.963 4.973-.642 1.497-1.53 2.78-2.664 3.85-1.134 1.048-2.471 1.861-4.012 2.439-1.54.577-3.209.866-5.007.866-1.797 0-3.466-.289-5.007-.866-1.54-.578-2.878-1.39-4.012-2.439-1.112-1.07-1.99-2.353-2.631-3.85-.642-1.497-.963-3.155-.963-4.973zm8.12 0c0 .748.107 1.433.321 2.053.235.62.545 1.155.931 1.604.406.45.888.803 1.444 1.06a4.563 4.563 0 001.797.352 4.34 4.34 0 001.766-.353 4.436 4.436 0 001.444-1.059c.407-.449.717-.983.931-1.604.235-.62.353-1.305.353-2.053 0-.728-.118-1.39-.353-1.99-.214-.62-.524-1.133-.931-1.54a4.262 4.262 0 00-1.444-.994 4.34 4.34 0 00-1.766-.353c-.642 0-1.241.117-1.797.353a4.252 4.252 0 00-1.444.994c-.386.407-.696.92-.931 1.54a5.877 5.877 0 00-.321 1.99zM316.201 39.358h-7.639V23.091h-5.585v-6.45h18.809v6.45h-5.585v16.267zM337.949 30.727h-6.226v8.631h-7.639V16.642h7.607v7.7h6.226v-7.7h7.671v22.716h-7.639v-8.63zM349.785 16.642h7.703v22.716h-7.703V16.642zM361.695 16.642h7.607l6.483 11.518h.129l-.321-11.518h7.253v22.716h-7.799l-6.291-10.845h-.128l.321 10.845h-7.254V16.642zM394.562 30.31h-.064v9.048h-7.447V16.642h7.415v8.374h.064l6.066-8.374h8.987l-8.538 10.395L410 39.358h-9.372l-6.066-9.048z" />
</svg>