<svg width="200" height="216" fill="#000" xmlns="http://www.w3.org/2000/svg">
    <path d="M0 195.525h4.39c1.962 0 2.655.059 3.233.292a2.99 2.99 0 011.28 1.142c.307.498.465 1.077.452 1.664 0 1.169-.347 1.751-1.494 2.335.592.19 1.103.577 1.449 1.098.346.521.507 1.145.457 1.771 0 1.926-1.502 3.209-3.696 3.209H0v-1.879h.866v-7.764H0v-1.868zm3.233 1.868v2.802h2.252c.81.058 1.56-.526 1.618-1.342v-.117c0-.754-.747-1.343-1.792-1.343H3.233zm0 4.612v3.152H5.66c.924.058 1.732-.585 1.792-1.518v-.058c-.002-.992-.81-1.637-2.022-1.637l-2.196.059v.002zM19.346 204.165c-.405 1.926-1.964 3.093-4.043 3.093-2.425 0-4.216-1.926-4.216-4.612 0-2.685 1.793-4.61 4.216-4.61a3.918 3.918 0 011.903.474 3.975 3.975 0 011.446 1.337c.6.98.902 2.118.867 3.27h-6.238c.232 2.277 1.676 2.393 2.08 2.393.396.015.787-.102 1.111-.335.324-.232.563-.566.68-.95l2.196-.057-.002-.003zm-2.195-2.567a1.763 1.763 0 00-.509-1.236 1.724 1.724 0 00-1.224-.515h-.058c-.47.01-.921.184-1.28.492a2.066 2.066 0 00-.682 1.199l3.753.057v.003zM26.564 201.304h3.984v5.72h-1.277v-1.812c-.238.408-.529.78-.866 1.108a4.01 4.01 0 01-2.599.994c-2.655 0-4.734-2.627-4.734-6.013s2.085-6.067 4.684-6.067c1.442-.059 2.713.755 3.406 1.984v-1.812h1.213v3.68h-1.271a3.853 3.853 0 00-.635-1.4 3.352 3.352 0 00-2.425-1.285c-1.386 0-3.465 1.226-3.465 4.787 0 2.802 1.501 4.844 3.465 4.844a3.304 3.304 0 002.032-.822 3.366 3.366 0 001.086-1.921c.049-.309.068-.622.059-.934h-2.716l.059-1.057v.006zM40.25 207.077h-2.484v-1.57a3.33 3.33 0 01-1.231 1.29 3.274 3.274 0 01-1.714.461c-1.442.116-2.713-1.057-2.828-2.511v-.175c0-1.692 1.442-2.509 4.907-2.859l.81-.059v-.875c0-.992-.747-1.635-1.964-1.635-1.218 0-1.845.409-2.08 1.576H32.34c.113-.7.459-1.339.981-1.812.635-.525 1.494-.754 2.31-.754 1.793 0 3.286.816 3.286 3.035v4.843h1.213l.115 1.057.006-.012zm-2.484-4.547l-.808.116c-2.657.35-3.523.818-3.523 1.926a1.8 1.8 0 00.56 1.21c.334.316.776.489 1.233.484a2.637 2.637 0 001.675-.675c.464-.416.77-.982.863-1.601v-1.46zM43.888 199.903c.404-.584 1.154-1.811 2.772-1.811 1.154 0 1.792.584 2.02 1.811.217-.406.49-.779.81-1.109a2.762 2.762 0 011.847-.755c1.328 0 2.079.875 2.079 2.393v5.541h1.213v1.057h-2.426v-6.135c0-1.226-.405-1.812-1.27-1.812-1.502 0-2.31 1.812-2.31 2.452v4.438h1.27v1.057h-2.54v-6.31c0-1.108-.404-1.576-1.27-1.576-1.328 0-2.309 1.694-2.309 2.51v4.378h1.27v1.057h-3.755v-1.057h1.274v-6.77h-1.271v-1.057h2.539l.058 1.692-.001.006zM55.956 195h2.425v5.078c.347-.641 1.33-1.926 2.83-1.926 1.965 0 3.465 2.043 3.465 4.612 0 2.393-1.616 4.435-3.464 4.435-1.56 0-2.31-1.057-2.83-1.751v1.629h-2.483v-1.057h1.213v-9.963h-1.156V195zm2.425 8.347a2.76 2.76 0 00.711 1.863c.46.508 1.094.823 1.773.881 1.502 0 2.425-1.344 2.425-3.502 0-2.159-.98-3.445-2.425-3.445-1.27 0-2.539 1.401-2.539 2.685l.057 1.51-.002.008zM65.413 195h2.483v11.032h1.155v1.057h-3.69v-1.057h1.269v-10.04h-1.217V195zM77.544 204.631a2.972 2.972 0 01-.693 1.342 3.6 3.6 0 01-1.246.955 3.562 3.562 0 01-1.53.33c-2.363 0-4.032-1.867-4.032-4.559 0-2.566 1.674-4.553 3.81-4.553 2.138 0 3.869 1.692 3.869 4.787h-6.298c.115 1.283.403 2.042.981 2.627.445.403 1.02.631 1.617.641.982 0 1.616-.466 2.08-1.509l1.442-.059v-.002zm-1.27-2.687c.001-.824-.308-1.617-.866-2.217-.404-.351-.924-.585-1.444-.526a2.522 2.522 0 00-1.452.559 2.566 2.566 0 00-.858 1.309c-.057.292-.173.584-.173.875h4.794zM83.035 195.525h2.772l3.175 9.69h.866v1.862H87.25l-.747-2.511h-4.05l-.747 2.511h-2.66v-1.862h.867l3.122-9.69zm1.386 2.161l-1.502 5.132h2.999l-1.497-5.132zM89.729 198.268h3.462v1.694h-.866l1.212 5.195 1.446-6.889h2.252l1.444 6.772 1.155-5.078h-.867v-1.694h3.465v1.694h-.747l-1.85 7.062h-2.313l-1.443-6.07-1.386 6.07h-2.307l-1.906-7.062h-.746v-1.694h-.005zM110.634 205.39h.747v1.687h-2.711v-1.057c-.635.817-1.617 1.226-2.657 1.226-1.732 0-3.06-1.167-3.06-2.743 0-2.566 2.887-2.868 5.659-3.095 0-1.342-.462-1.751-1.559-1.751-1.098 0-1.501.525-1.56 1.344v.057l-2.078-.057c.116-1.752 1.502-2.861 3.584-2.861 2.425 0 3.695 1.109 3.695 3.093l-.057 4.145-.003.012zm-2.079-2.451c-2.022.175-3.35.35-3.35 1.576 0 .7.578 1.167 1.444 1.167.502.001.984-.192 1.349-.539.365-.347.585-.823.614-1.329v-.875h-.057zM115.479 199.669c.578-1.108 1.212-1.576 2.194-1.576.33.01.659.05.982.118v2.042a6.319 6.319 0 00-1.045-.116 1.93 1.93 0 00-1.411.471c-.389.34-.63.822-.668 1.341v3.383h1.045v1.692h-4.042v-1.692h.866v-5.37h-.866v-1.694h2.945v1.401zM127.374 204.165c-.403 1.926-1.962 3.093-4.041 3.093-2.426 0-4.216-1.926-4.216-4.612 0-2.685 1.792-4.61 4.216-4.61a3.917 3.917 0 011.902.474 3.98 3.98 0 011.446 1.337c.578.994.924 2.102.866 3.27h-6.236c.231 2.277 1.675 2.393 2.078 2.393.397.015.788-.102 1.112-.335.325-.232.564-.566.681-.95l2.193-.057-.001-.003zm-2.252-2.567a1.76 1.76 0 00-.509-1.236 1.724 1.724 0 00-1.224-.515h-.056c-.471.01-.923.184-1.281.493-.358.309-.6.733-.683 1.201l3.753.057zM128.585 205.927h1.08v1.067h-1.08v-1.067zM130.627 203.828c0-1.923 1.171-3.248 2.864-3.248 1.666.006 2.86 1.372 2.86 3.248 0 1.963-1.183 3.306-2.888 3.306-1.706 0-2.836-1.336-2.836-3.306zm2.837 2.521c1.183 0 1.891-.961 1.891-2.545 0-1.488-.747-2.439-1.891-2.439-1.143 0-1.822.951-1.822 2.486-.007 1.565.677 2.498 1.815 2.498h.007zM138.795 202.127c.298-.657.463-.856.746-1.125a1.745 1.745 0 011.137-.435c.226.009.451.033.673.071v.926a3.768 3.768 0 00-.661-.082c-1.694 0-1.891 1.771-1.891 1.865v2.909h1.066v.738h-2.858v-.738h.896v-4.831h-.927v-.755h1.822l-.003 1.457zM146.242 205.446c-.569.809-1.195 1.078-1.88 1.078-1.494 0-2.529-1.242-2.529-3.037 0-1.694 1.01-2.902 2.424-2.902 1.149 0 1.66.739 1.985 1.22v-1.132H148v.755h-.871v5.179c0 1.525-.963 2.393-2.657 2.393-1.032 0-1.914-.453-2.331-1.197a3.505 3.505 0 01-.255-.622h1.009c.371.755.811 1.045 1.643 1.045 1.056 0 1.694-.551 1.694-1.466l.01-1.314zm0-2.439c0-.692-.836-1.677-1.792-1.677-1.02 0-1.643.844-1.643 2.216 0 1.396.639 2.24 1.706 2.24.917 0 1.729-.906 1.729-1.642v-1.137z" />
    <path fill-rule="evenodd" clip-rule="evenodd" d="M200 202c0 7.732-6.268 14-14 14s-14-6.268-14-14 6.268-14 14-14 14 6.268 14 14zm-18.617 3.921h-1.522v-5.737a5.25 5.25 0 01-1.966 1.154v-1.381c.397-.13.828-.376 1.294-.737.466-.364.786-.789.959-1.273h1.235v7.974zm3.586-4.285c-.394-.166-.681-.394-.861-.682a1.822 1.822 0 01-.266-.959c0-.592.206-1.082.618-1.468.415-.386 1.004-.58 1.765-.58.755 0 1.34.194 1.755.58.419.386.629.876.629 1.468 0 .368-.096.697-.287.986a1.834 1.834 0 01-.807.655c.44.177.774.435 1.002.775.231.339.346.731.346 1.175 0 .733-.234 1.329-.704 1.788-.466.458-1.087.687-1.863.687-.722 0-1.324-.189-1.804-.568-.567-.448-.85-1.062-.85-1.842 0-.43.106-.823.319-1.181.213-.361.549-.639 1.008-.834zm.314-1.533c0 .303.085.54.255.71.173.169.402.254.687.254.289 0 .52-.085.694-.254.173-.174.26-.412.26-.715 0-.286-.087-.513-.26-.683-.17-.173-.396-.26-.677-.26-.293 0-.526.087-.699.26-.173.174-.26.403-.26.688zm-.141 3.402c0 .419.107.745.32.98.216.235.485.352.807.352.314 0 .574-.112.78-.336.206-.227.309-.554.309-.98 0-.372-.105-.67-.315-.894a1.036 1.036 0 00-.796-.341c-.372 0-.65.128-.834.385a1.415 1.415 0 00-.271.834zm6.765-.791v2.064h1.387v-2.064h2.085v-1.425h-2.085v-2.063h-1.387v2.063h-2.08v1.425h2.08zM143 43c0 23.748-19.252 43-43 43S57 66.748 57 43 76.252 0 100 0s43 19.252 43 43zM84.95 25.8h11.825v34.4H84.95V25.8zm30.1 0h-11.825v34.4h11.825V25.8z" />
    <path d="M24.477 117.995h-7.785v-16.467H11V95h19.168v6.528h-5.691v16.467zM37.006 95h8.275l9.028 22.995h-8.471l-1.21-3.378h-7.36l-1.145 3.378H27.88L37.006 95zm4.023 8.022l-1.897 5.684h3.762l-1.865-5.684zM63.578 108.836h-.065v9.159h-7.589V95h7.556v8.477h.066L69.728 95h9.159l-8.701 10.523 9.126 12.472H69.76l-6.183-9.159zM80.84 95h15.93v6.431h-8.604v1.981h8.08v6.009h-8.08v2.143h9.16v6.431H80.838V95zM119.409 117.995h-7.785v-16.467h-5.692V95H125.1v6.528h-5.691v16.467zM127.442 95h7.851v22.995h-7.851V95zM146.482 105.003l.36 12.992h-7.262V95h10.173l4.187 12.374h.164L157.734 95h10.5v22.995h-7.556l.229-12.927-.196-.032-4.318 12.959h-5.495l-4.252-12.992h-.164zM172.513 95h15.93v6.431h-8.603v1.981h8.08v6.009h-8.08v2.143h9.159v6.431h-16.486V95zM33.877 147.35h-7.785v-16.466H20.4v-6.529h19.168v6.529h-5.691v16.466zM39.873 135.723c0-1.84.328-3.497.982-4.969.654-1.494 1.548-2.761 2.682-3.8 1.156-1.04 2.519-1.841 4.089-2.404 1.57-.563 3.27-.844 5.103-.844 1.831 0 3.532.281 5.102.844 1.57.563 2.933 1.364 4.09 2.404 1.155 1.039 2.06 2.306 2.714 3.8.654 1.472.981 3.129.981 4.969 0 1.84-.327 3.519-.981 5.034a11.535 11.535 0 01-2.715 3.898c-1.156 1.061-2.519 1.883-4.089 2.468-1.57.585-3.27.877-5.102.877-1.832 0-3.533-.292-5.103-.877-1.57-.585-2.933-1.407-4.089-2.468-1.134-1.083-2.028-2.382-2.682-3.898-.654-1.515-.981-3.194-.981-5.034zm8.276 0c0 .758.11 1.451.327 2.079a5.42 5.42 0 00.949 1.624 4.51 4.51 0 001.472 1.071 4.667 4.667 0 001.832.358c.654 0 1.254-.119 1.799-.358A4.51 4.51 0 0056 139.426a4.64 4.64 0 00.948-1.624c.24-.628.36-1.321.36-2.079 0-.736-.12-1.407-.36-2.014-.218-.628-.534-1.147-.948-1.559a4.351 4.351 0 00-1.472-1.007 4.448 4.448 0 00-1.8-.357c-.654 0-1.264.119-1.831.357a4.351 4.351 0 00-1.472 1.007c-.393.412-.709.931-.949 1.559a5.921 5.921 0 00-.327 2.014zM86.744 147.35h-7.785v-16.466h-5.692v-6.529h19.168v6.529h-5.691v16.466zM108.908 138.614h-6.345v8.736h-7.785v-22.995h7.752v7.795h6.346v-7.795h7.817v22.995h-7.785v-8.736zM120.97 124.355h7.851v22.995h-7.851v-22.995zM133.108 124.355h7.752l6.608 11.66h.131l-.327-11.66h7.392v22.995h-7.948l-6.412-10.977h-.13l.327 10.977h-7.393v-22.995zM166.604 138.191h-.066v9.159h-7.588v-22.995h7.556v8.477h.065l6.182-8.477h9.159l-8.701 10.524 9.126 12.471h-9.551l-6.182-9.159z" />
</svg>