<svg width="168" height="24" fill="none" xmlns="http://www.w3.org/2000/svg"><path fill-rule="evenodd" clip-rule="evenodd" d="M22.83 12c0 6.627-5.111 12-11.415 12C5.11 24 0 18.627 0 12S5.11 0 11.415 0c6.304 0 11.414 5.373 11.414 12zM7.42 7.2h3.139v9.6h-3.14V7.2zm7.99 0h-3.14v9.6h3.14V7.2z" fill="#fff"/><path d="M33.112 16.868h-3.114V9.896H27.72V7.132h7.668v2.764h-2.277v6.972zM38.124 7.132h3.31l3.611 9.736h-3.388l-.484-1.43h-2.945l-.457 1.43h-3.298l3.65-9.736zm1.61 3.397l-.76 2.406h1.505l-.746-2.406zM48.753 12.99h-.026v3.878h-3.036V7.132h3.023v3.59h.026l2.473-3.59h3.664l-3.48 4.455 3.65 5.28h-3.82l-2.474-3.877zM55.658 7.132h6.372v2.723h-3.441v.839h3.232v2.544h-3.232v.907h3.663v2.723h-6.594V7.132zM71.086 16.868h-3.114V9.896h-2.277V7.132h7.668v2.764h-2.277v6.972zM74.3 7.132h3.14v9.736H74.3V7.132zM81.916 11.367l.144 5.5h-2.905V7.133h4.07l1.674 5.24h.065l1.453-5.24h4.2v9.736h-3.023l.092-5.473-.079-.014-1.727 5.487h-2.198l-1.7-5.5h-.066zM92.329 7.132H98.7v2.723h-3.442v.839h3.232v2.544H95.26v.907h3.664v2.723h-6.594V7.132zM107.757 16.868h-3.114V9.896h-2.277V7.132h7.667v2.764h-2.276v6.972zM110.155 11.945c0-.78.131-1.48.393-2.104a4.725 4.725 0 011.073-1.609 4.817 4.817 0 011.636-1.017 5.704 5.704 0 012.041-.358c.732 0 1.413.12 2.041.358a4.822 4.822 0 011.635 1.017c.463.44.825.977 1.086 1.61.262.622.393 1.324.393 2.103 0 .78-.131 1.49-.393 2.131a4.876 4.876 0 01-1.086 1.65 4.89 4.89 0 01-1.635 1.046 5.52 5.52 0 01-2.041.37 5.516 5.516 0 01-2.041-.37 4.883 4.883 0 01-1.636-1.045 4.997 4.997 0 01-1.073-1.65c-.262-.642-.393-1.353-.393-2.132zm3.311 0c0 .32.043.614.131.88.096.266.222.495.379.688.166.192.362.343.589.453.227.101.471.152.733.152.261 0 .501-.05.719-.152.227-.11.423-.26.589-.453a2 2 0 00.38-.688c.096-.266.143-.56.143-.88 0-.312-.047-.596-.143-.853a1.724 1.724 0 00-.38-.66 1.735 1.735 0 00-.589-.426 1.693 1.693 0 00-.719-.151c-.262 0-.506.05-.733.151-.227.1-.423.243-.589.426a1.973 1.973 0 00-.379.66c-.088.257-.131.541-.131.853zM128.904 16.868h-3.114V9.896h-2.277V7.132h7.668v2.764h-2.277v6.972zM137.77 13.169h-2.538v3.699h-3.114V7.132h3.101v3.3h2.538v-3.3h3.127v9.736h-3.114v-3.7zM142.595 7.132h3.141v9.736h-3.141V7.132zM147.451 7.132h3.101l2.643 4.937h.052l-.131-4.937h2.957v9.736h-3.179l-2.565-4.648h-.052l.131 4.648h-2.957V7.132zM160.849 12.99h-.026v3.878h-3.036V7.132h3.023v3.59h.026l2.473-3.59h3.664l-3.481 4.455 3.651 5.28h-3.821l-2.473-3.877z" fill="#fff"/></svg>