<svg width="90" height="24" fill="none" xmlns="http://www.w3.org/2000/svg"><path fill-rule="evenodd" clip-rule="evenodd" d="M9.328 10.18a7.168 7.168 0 01-1.698.416c-.659.104-1.317.139-1.976.139-1.455.034-2.842-.485-3.95-1.385A4.776 4.776 0 01.004 5.714C-.03 4.155.56 2.666 1.67 1.593 2.709.589 4.233.035 6.035.035c.624 0 1.213.069 1.837.173.52.104 1.005.242 1.49.485l-.589 1.592a4.07 4.07 0 00-.935-.519 5.943 5.943 0 00-1.907-.312 3.885 3.885 0 00-2.91 1.04c-.694.796-1.075 1.8-1.006 2.873A4.124 4.124 0 003.16 8.345a3.674 3.674 0 002.6 1.074c.311 0 .623 0 .9-.035.243-.034.485-.07.693-.138.035-.277.035-.693.07-1.074.034-.38 0-.796 0-1.073v-.935c0-.277-.035-.554-.07-.797h2.01c-.034.312-.034.624-.034.97V10.18zM13.452 6.198c.104-.242.208-.519.347-.796.138-.277.242-.554.346-.797.208-.484.382-.934.555-1.385.173-.45.346-.865.485-1.28.208.657.45 1.35.693 2.077.243.727.555 1.454.832 2.216l-3.258-.035zM16.294.035h-1.802A230.498 230.498 0 0112.1 5.47c-.867 1.905-1.664 3.74-2.288 5.021h1.906c.035-.173.139-.38.208-.554.07-.173.174-.415.243-.623.139-.277.242-.554.381-.831.139-.277.243-.589.347-.9h4.262c.105.277.208.588.347.865.139.277.243.589.347.866l.208.589c.069.207.138.38.207.554h2.184c-.728-1.593-1.49-3.463-2.253-5.333-.762-1.87-1.386-3.636-1.906-5.09zM30.92 10.388c0-1.385-.036-2.77-.07-4.155a120.978 120.978 0 00-.173-3.913l-.312.797-.347.934c-.346.97-.762 2.113-1.178 3.255-.416 1.143-.797 2.217-1.144 3.082h-1.698c-.45-1.316-.97-2.804-1.421-4.19-.45-1.385-.901-2.77-1.282-3.843a102.544 102.544 0 00-.382 3.947c-.104 1.385-.207 2.77-.242 4.121h-1.768c.278-1.766.45-3.463.59-5.194.138-1.732.277-3.463.346-5.229h2.391c.243.831.555 1.731.867 2.666.312.935.658 1.836.97 2.736.174.554.381 1.073.555 1.558.173.485.346.97.485 1.455a121.1 121.1 0 001.56-4.121c.52-1.455 1.04-2.944 1.49-4.26h2.287c0 1.49.07 3.221.173 5.022.104 1.8.243 3.636.382 5.332h-2.08zM37.088 9.003h-1.04c-.034-.554-.034-1.108-.034-1.662V5.68h1.04a4.448 4.448 0 012.114.415c.45.243.727.728.693 1.247a1.45 1.45 0 01-.59 1.247c-.45.277-1.143.415-2.183.415zm-1.005-7.618c.173-.035.312-.035.485-.07h.52a3.734 3.734 0 011.837.382c.381.242.59.658.555 1.108.034.45-.208.9-.59 1.143a3.103 3.103 0 01-1.837.38h-.97V2.77c0-.52-.07-.935 0-1.385zm3.327 3.428a2.69 2.69 0 001.352-.865c.346-.381.52-.866.554-1.386 0-.761-.38-1.489-1.074-1.87-.693-.415-1.698-.657-2.946-.657h-3.188c.034 1.004.069 1.835.104 2.631.034.797 0 1.628 0 2.667V7.86c0 .762-.035 1.559-.104 2.528h3.223c1.49 0 2.599-.277 3.327-.796a2.684 2.684 0 001.109-2.286c0-.588-.208-1.177-.624-1.592a3.12 3.12 0 00-1.733-.9zM44.574 7.757v1.246h2.53c.832 0 1.594-.034 2.149-.069l-.555 1.454h-6.065c.035-.97.07-1.731.104-2.527.035-.797 0-1.559 0-2.528V2.666c0-.796-.069-1.627-.104-2.631h2.01c0 .346 0 .692-.034 1.004-.035.311 0 .588-.035.866 0 .519-.035 1.038-.035 1.627s-.034 1.177-.034 1.835v1.247c0 .38.034.762.07 1.143zM50.397 10.388c.034-.97.069-1.731.104-2.527.034-.797 0-1.559 0-2.528V2.666c0-.796-.035-1.627-.104-2.631h2.01V1.42c0 .658-.035 1.246-.035 1.87 0 .623-.035 1.28-.035 2.077 0 .727 0 1.35.035 1.94.035.588.035 1.142.035 1.765V10.388h-2.01zM62.318.035c-.034 1.004-.034 1.835-.069 2.631-.035.797 0 1.628 0 2.667V7.86c0 .761.035 1.558.07 2.527h-1.803c-.935-1.454-1.94-2.943-2.876-4.363a102.662 102.662 0 00-2.565-3.705v4.294c0 1.212.035 2.39.07 3.774h-1.837c.034-.97.069-1.731.104-2.527.034-.797 0-1.559 0-2.528V2.666c0-.796-.035-1.627-.07-2.666h2.08a188.6 188.6 0 012.91 4.017A85.051 85.051 0 0160.62 7.41V3.463c0-1.178-.034-2.251-.104-3.463l1.802.035zM72.75 10.18a7.167 7.167 0 01-1.698.416c-.659.104-1.317.139-1.976.139-1.455.034-2.841-.485-3.985-1.385a4.722 4.722 0 01-1.698-3.636c-.035-1.559.554-3.048 1.663-4.121C66.096.589 67.621.035 69.423.035c.624 0 1.213.069 1.802.173.52.104 1.005.242 1.49.485l-.589 1.592c-.312-.277-.693-.45-1.109-.554a5.53 5.53 0 00-1.663-.242c-1.282 0-2.288.38-2.946 1.073-.693.797-1.074 1.801-1.005 2.84a4.243 4.243 0 001.109 2.978 3.674 3.674 0 002.6 1.073c.311 0 .588 0 .9-.034.243-.035.45-.07.659-.139.034-.277.034-.692.07-1.073.034-.381 0-.797 0-1.074v-.935c0-.277-.036-.554-.07-.796h2.044c-.034.312-.034.623-.034.97V8.83c0 .52.035.9.07 1.35z" fill="#B0B0B0"/><path fill-rule="evenodd" clip-rule="evenodd" d="M.005 18.907a5.387 5.387 0 011.698-4.155c1.11-1.005 2.565-1.524 4.09-1.524.59 0 1.144.034 1.733.138.45.07.9.208 1.351.416l-.623 1.662a1.958 1.958 0 00-.832-.554c-.52-.208-1.04-.277-1.594-.277a3.604 3.604 0 00-2.669 1.039c-.728.796-1.074 1.835-1.04 2.909a4.02 4.02 0 001.075 2.874c.693.692 1.663 1.108 2.668 1.073.45 0 .901-.034 1.352-.173a3.68 3.68 0 001.178-.554l.555 1.316a5.004 5.004 0 01-1.56.588c-.624.139-1.247.174-1.871.174a5.692 5.692 0 01-3.882-1.386C.56 21.574.005 20.258.005 18.908z" fill="#fff"/><path fill-rule="evenodd" clip-rule="evenodd" d="M14.353 22.577a3.126 3.126 0 01-2.495-1.108 4.995 4.995 0 010-5.748c1.248-1.385 3.396-1.454 4.748-.208l.208.208c.658.831 1.005 1.835.97 2.874.035 1.039-.277 2.078-.935 2.874a3.126 3.126 0 01-2.496 1.108zm0-9.315a5.59 5.59 0 00-3.916 1.49c-1.04 1.073-1.629 2.493-1.594 4.016a5.012 5.012 0 001.525 3.74 5.595 5.595 0 003.95 1.385 5.506 5.506 0 003.882-1.489c1.075-1.039 1.63-2.493 1.594-3.982a5.143 5.143 0 00-1.524-3.774 5.502 5.502 0 00-3.917-1.386zM30.573 23.512c0-1.385-.035-2.77-.07-4.155a120.69 120.69 0 00-.173-3.913c-.07.242-.173.52-.277.796-.104.277-.208.59-.347.9a133.972 133.972 0 01-1.178 3.256c-.416 1.108-.797 2.216-1.144 3.116h-1.767c-.45-1.316-.97-2.805-1.421-4.19-.45-1.385-.901-2.77-1.283-3.843-.138 1.212-.242 2.562-.38 3.913a54.779 54.779 0 00-.243 4.12h-1.768c.277-1.766.45-3.463.59-5.194.138-1.731.242-3.428.311-5.16h2.392c.242.866.554 1.767.866 2.667.312.9.659 1.835.97 2.736.208.554.382 1.073.555 1.558.173.485.346.97.485 1.454.485-1.212 1.04-2.666 1.56-4.12.52-1.455 1.04-2.979 1.525-4.294h2.287c0 1.489.07 3.22.173 5.02.104 1.801.243 3.637.382 5.333h-2.045zM43.222 23.512c0-1.385-.034-2.77-.069-4.155a120.988 120.988 0 00-.173-3.913l-.312.796-.347.9a133.972 133.972 0 01-1.178 3.256c-.416 1.108-.797 2.216-1.11 3.082h-1.801c-.45-1.316-.936-2.805-1.421-4.19-.485-1.385-.901-2.77-1.248-3.844a107.355 107.355 0 00-.381 3.913 164.23 164.23 0 00-.277 4.12h-1.733c.277-1.765.45-3.462.589-5.194.139-1.73.243-3.428.312-5.159h2.391c.243.866.555 1.766.832 2.666.277.9.624 1.836.97 2.736.208.554.382 1.073.555 1.558.173.485.346.97.485 1.454.485-1.211 1.005-2.666 1.56-4.12.554-1.455 1.04-2.978 1.49-4.294h2.287c0 1.489.07 3.22.174 5.021.104 1.8.242 3.636.38 5.333l-1.975.034zM46.237 23.512c.035-.935.07-1.696.105-2.493.034-.796 0-1.558 0-2.528v-2.7c0-.832-.035-1.628-.105-2.667h2.01c-.034 1.039-.069 1.835-.103 2.666-.035.831 0 1.662 0 2.701v2.528c0 .797.034 1.558.104 2.493h-2.01zM55.699 15.34a2.65 2.65 0 00-.901-.52c-.416-.172-.867-.242-1.352-.242a2.55 2.55 0 00-1.42.347 1.104 1.104 0 00-.486.935c0 .311.104.623.312.83.381.347.832.624 1.317.797l.52.243.52.242a4.268 4.268 0 011.732 1.212c.382.485.555 1.108.52 1.731.035.9-.38 1.732-1.074 2.286-.797.554-1.767.796-2.738.761-.624 0-1.213-.034-1.802-.173a8.472 8.472 0 01-1.594-.484l.589-1.524c.416.277.866.485 1.317.623.485.173.97.243 1.49.243.52.034 1.04-.104 1.49-.416.278-.277.45-.658.416-1.039 0-.346-.138-.692-.381-.935-.347-.311-.728-.588-1.178-.762l-.59-.277c-.207-.103-.415-.207-.589-.277a3.769 3.769 0 01-1.594-1.142 2.302 2.302 0 01-.52-1.628c0-.83.381-1.593 1.04-2.077.797-.59 1.767-.866 2.773-.832a8.99 8.99 0 011.663.139c.416.07.797.208 1.178.38l-.658 1.56zM63.427 15.34c-.277-.208-.589-.415-.9-.52a3.42 3.42 0 00-1.318-.242 2.55 2.55 0 00-1.42.347 1.104 1.104 0 00-.486.934c0 .312.104.624.312.832.381.346.832.623 1.317.796l.52.242.52.243a4.269 4.269 0 011.733 1.212c.38.485.554 1.108.52 1.731.034.9-.382 1.732-1.075 2.286a4.429 4.429 0 01-2.703.796c-.624 0-1.213-.035-1.837-.173a8.472 8.472 0 01-1.594-.485l.589-1.523c.416.277.867.484 1.317.623.485.173.97.242 1.49.242a2.33 2.33 0 001.49-.415c.278-.277.451-.658.416-1.04 0-.345-.138-.692-.38-.934-.347-.312-.729-.589-1.18-.762l-.588-.277c-.208-.104-.416-.208-.59-.277a3.768 3.768 0 01-1.594-1.143 2.302 2.302 0 01-.52-1.627c0-.831.382-1.593 1.04-2.078.797-.588 1.768-.866 2.773-.83a8.99 8.99 0 011.663.138c.416.069.797.207 1.179.38l-.694 1.524zM65.299 23.512c.034-.935.07-1.696.104-2.493.034-.796 0-1.558 0-2.528v-2.7c0-.832-.035-1.628-.104-2.667h2.01c-.035 1.039-.07 1.835-.104 2.666-.035.831 0 1.662 0 2.701v2.528c0 .797.035 1.558.104 2.493h-2.01zM73.928 22.577a3.057 3.057 0 01-2.46-1.108 4.938 4.938 0 01-.035-5.748 3.126 3.126 0 012.495-1.108c.936-.035 1.837.38 2.461 1.073.659.831 1.005 1.836.97 2.875.035 1.038-.277 2.077-.935 2.874a3.054 3.054 0 01-2.496 1.142zm0-9.315c-2.91-.138-5.371 2.113-5.475 5.021v.485a5.012 5.012 0 001.525 3.74 5.816 5.816 0 003.985 1.42c1.456.034 2.842-.52 3.916-1.49a5.484 5.484 0 001.595-3.981 5.143 5.143 0 00-1.525-3.775c-1.144-.97-2.565-1.489-4.02-1.42zM89.143 13.159c-.035 1.038-.035 1.835-.07 2.666-.034.831 0 1.662 0 2.7v2.529c0 .796.035 1.558.07 2.493H87.41c-.97-1.454-1.975-2.943-2.911-4.363a70.22 70.22 0 00-2.6-3.705v4.328c0 1.247.035 2.39.105 3.705h-1.768v-.277c0-.45.035-1.212.07-2.043.034-.83.034-1.8.034-2.666 0-1.039 0-2.147-.035-3.082-.034-.935-.034-1.766-.069-2.285h2.045c1.04 1.35 2.01 2.77 2.911 4.051.901 1.281 1.664 2.459 2.287 3.394V16.69c0-1.178-.034-2.286-.104-3.532h1.768z" fill="#fff"/></svg>